<svg xmlns="http://www.w3.org/2000/svg" viewBox="0 0 100 100">
  <defs>
    <style>
      .a {
        fill: #e8f4fa;
        stroke: #daedf7;
      }

      .a, .e, .h, .l, .o, .r, .w {
        stroke-linecap: round;
        stroke-linejoin: round;
      }

      .b {
        fill: #45413c;
        opacity: 0.15;
      }

      .c {
        fill: #ff6242;
      }

      .d {
        fill: #ff866e;
      }

      .e, .o {
        fill: none;
      }

      .e, .h, .l, .o, .r, .w {
        stroke: #45413c;
      }

      .f {
        fill: #fff5e3;
      }

      .g {
        fill: #f7e5c6;
      }

      .h, .u {
        fill: #fff;
      }

      .i {
        fill: #6dd627;
      }

      .j {
        fill: #9ceb60;
      }

      .k {
        fill: #46b000;
      }

      .l, .m, .q {
        fill: #656769;
      }

      .n, .p {
        fill: #525252;
      }

      .r {
        fill: #ffe500;
      }

      .s {
        fill: #fff48c;
      }

      .t {
        fill: #fffacf;
      }

      .v {
        fill: #daedf7;
      }

      .w {
        fill: #c0dceb;
      }

      .x {
        fill: #ffa694;
      }
    </style>
  </defs>
  <title>graduation-1--education-ACHIEVEMENT-GRADUATION-certification-DIPLOMA-STUDY-EDUCATION-COMPLETION</title>
  <g>
    <circle class="a" cx="50.627" cy="50" r="40"/>
    <g>
      <ellipse class="b" cx="21.624" cy="71.99" rx="8.4" ry="1.162"/>
      <ellipse class="b" cx="60.537" cy="71.99" rx="24.15" ry="2.325"/>
      <g>
        <path class="c" d="M39.032,65.015a3.487,3.487,0,0,1,3.487-3.487H82.042a1.744,1.744,0,0,0,0-3.487H42.519a6.975,6.975,0,0,0,0,13.949H82.042a1.744,1.744,0,0,0,0-3.488H42.519A3.487,3.487,0,0,1,39.032,65.015Z"/>
        <path class="d" d="M42.519,59.784H82.042a1.744,1.744,0,0,1,1.51.872,1.744,1.744,0,0,0-1.51-2.615H42.519a6.979,6.979,0,0,0-6.92,7.846A6.976,6.976,0,0,1,42.519,59.784Z"/>
        <path class="e" d="M39.032,65.015a3.487,3.487,0,0,1,3.487-3.487H82.042a1.744,1.744,0,0,0,0-3.487H42.519a6.975,6.975,0,0,0,0,13.949H82.042a1.744,1.744,0,0,0,0-3.488H42.519A3.487,3.487,0,0,1,39.032,65.015Z"/>
        <path class="f" d="M78.555,65.015a3.487,3.487,0,0,1,3.487-3.487H42.519a3.487,3.487,0,0,0,0,6.974H82.042A3.487,3.487,0,0,1,78.555,65.015Z"/>
        <path class="g" d="M42.519,63.272h36.5a3.483,3.483,0,0,1,3.02-1.744H42.519a3.49,3.49,0,0,0-3.377,4.359A3.488,3.488,0,0,1,42.519,63.272Z"/>
        <path class="e" d="M78.555,65.015a3.487,3.487,0,0,1,3.487-3.487H42.519a3.487,3.487,0,0,0,0,6.974H82.042A3.487,3.487,0,0,1,78.555,65.015Z"/>
        <line class="h" x1="46.007" y1="63.853" x2="73.324" y2="63.853"/>
        <line class="h" x1="46.007" y1="66.178" x2="73.324" y2="66.178"/>
      </g>
      <g>
        <path class="i" d="M77.973,51.066a3.487,3.487,0,0,0-3.487-3.487H34.963a1.744,1.744,0,0,1,0-3.488H74.486a6.975,6.975,0,0,1,0,13.95H34.963a1.744,1.744,0,0,1,0-3.488H74.486A3.487,3.487,0,0,0,77.973,51.066Z"/>
        <path class="j" d="M74.486,45.835H34.963a1.741,1.741,0,0,0-1.509.872,1.744,1.744,0,0,1,1.509-2.616H74.486a6.973,6.973,0,0,1,6.92,7.847A6.975,6.975,0,0,0,74.486,45.835Z"/>
        <path class="k" d="M34.963,44.091a1.744,1.744,0,0,0,0,3.488h.572q2.664-1.792,5.588-3.488Z"/>
        <path class="e" d="M77.973,51.066a3.487,3.487,0,0,0-3.487-3.487H34.963a1.744,1.744,0,0,1,0-3.488H74.486a6.975,6.975,0,0,1,0,13.95H34.963a1.744,1.744,0,0,1,0-3.488H74.486A3.487,3.487,0,0,0,77.973,51.066Z"/>
        <path class="f" d="M38.451,51.066a3.488,3.488,0,0,0-3.488-3.487H74.486a3.487,3.487,0,0,1,0,6.974H34.963A3.488,3.488,0,0,0,38.451,51.066Z"/>
        <path class="g" d="M74.486,49.322h-36.5a3.485,3.485,0,0,0-3.02-1.743H74.486a3.49,3.49,0,0,1,3.377,4.359A3.489,3.489,0,0,0,74.486,49.322Z"/>
        <path class="e" d="M38.451,51.066a3.488,3.488,0,0,0-3.488-3.487H74.486a3.487,3.487,0,0,1,0,6.974H34.963A3.488,3.488,0,0,0,38.451,51.066Z"/>
        <line class="h" x1="70.999" y1="49.904" x2="43.682" y2="49.904"/>
        <line class="h" x1="70.999" y1="52.228" x2="43.682" y2="52.228"/>
      </g>
      <g>
        <circle class="l" cx="59.787" cy="26.244" r="2.594"/>
        <polygon class="m" points="74.055 30.135 45.519 30.135 44.222 43.755 75.352 43.755 74.055 30.135"/>
        <polygon class="n" points="74.302 32.73 74.055 30.135 45.519 30.135 45.272 32.73 74.302 32.73"/>
        <polygon class="o" points="74.055 30.135 45.519 30.135 44.222 43.755 75.352 43.755 74.055 30.135"/>
        <g>
          <path class="p" d="M84.432,26.244H35.143a1.946,1.946,0,1,0,0,3.891H84.432a1.946,1.946,0,1,0,0-3.891Z"/>
          <path class="q" d="M84.432,28.19a1.946,1.946,0,0,1,1.685.972,1.945,1.945,0,0,0-1.685-2.918H35.143a1.945,1.945,0,0,0-1.685,2.918,1.943,1.943,0,0,1,1.685-.972Z"/>
          <path class="e" d="M84.432,26.244H35.143a1.946,1.946,0,1,0,0,3.891H84.432a1.946,1.946,0,1,0,0-3.891Z"/>
        </g>
        <line class="o" x1="86.378" y1="28.19" x2="86.378" y2="35.972"/>
        <path class="r" d="M87.675,37.269a1.3,1.3,0,1,0-2.594,0v2.595h2.594Z"/>
        <path class="s" d="M88.619,40.489a2.268,2.268,0,0,0-4.483,0l-.815,5.3A1.051,1.051,0,0,0,84.359,47H88.4a1.05,1.05,0,0,0,1.037-1.21Z"/>
        <path class="t" d="M86.378,41.161a4.512,4.512,0,0,1,2.456.721l-.215-1.393a2.268,2.268,0,0,0-4.483,0l-.214,1.393A4.512,4.512,0,0,1,86.378,41.161Z"/>
        <path class="o" d="M88.619,40.489a2.268,2.268,0,0,0-4.483,0l-.815,5.3A1.051,1.051,0,0,0,84.359,47H88.4a1.05,1.05,0,0,0,1.037-1.21Z"/>
      </g>
      <g>
        <path class="u" d="M58.38,31.869S46.791,39.653,38.337,49.252,23.626,71.331,23.626,71.331c-1.3,1.472-5.452-.068-9.28-3.44s-5.881-7.3-4.584-8.771c0,0,11.589-7.784,20.043-17.383s14.71-22.078,14.71-22.078Z"/>
        <path class="v" d="M29.805,41.737C21.351,51.336,9.762,59.12,9.762,59.12c-1.156,1.312.347,4.572,3.4,7.652l3-2.017S27.75,56.972,36.2,47.373s14.71-22.079,14.71-22.079l-6.4-5.635S38.258,32.139,29.805,41.737Z"/>
        <path class="h" d="M29.805,41.737C21.351,51.336,9.762,59.12,9.762,59.12c-.895,1.015-.2,3.2,1.579,5.561l2.687-1.8S25.617,55.093,34.071,45.5s14.71-22.079,14.71-22.079l-4.266-3.757S38.258,32.139,29.805,41.737Z"/>
        <path class="e" d="M58.38,31.869S46.791,39.653,38.337,49.252,23.626,71.331,23.626,71.331c-1.3,1.472-5.452-.068-9.28-3.44s-5.881-7.3-4.584-8.771c0,0,11.589-7.784,20.043-17.383s14.71-22.078,14.71-22.078Z"/>
        <ellipse class="w" cx="51.448" cy="25.764" rx="3.553" ry="9.238" transform="translate(-1.89 47.345) rotate(-48.629)"/>
        <path class="d" d="M35.48,43.9a12.49,12.49,0,0,1-3.509-4.734c-.7.874-1.426,1.736-2.166,2.576q-1,1.139-2.055,2.238a12.505,12.505,0,0,0,3.5,4.719,12.509,12.509,0,0,0,5.124,2.879q.957-1.181,1.96-2.321c.74-.84,1.5-1.667,2.282-2.475A12.492,12.492,0,0,1,35.48,43.9Z"/>
        <path class="x" d="M29.29,46.622l4.227-4.8a10.861,10.861,0,0,1-1.546-2.662c-.7.874-1.426,1.736-2.166,2.576q-1,1.139-2.055,2.238A10.866,10.866,0,0,0,29.29,46.622Z"/>
        <path class="e" d="M35.48,43.9a12.49,12.49,0,0,1-3.509-4.734c-.7.874-1.426,1.736-2.166,2.576q-1,1.139-2.055,2.238a12.505,12.505,0,0,0,3.5,4.719,12.509,12.509,0,0,0,5.124,2.879q.957-1.181,1.96-2.321c.74-.84,1.5-1.667,2.282-2.475A12.492,12.492,0,0,1,35.48,43.9Z"/>
      </g>
    </g>
  </g>
</svg>
