<svg width="126" height="89" viewBox="0 0 126 89" fill="none" xmlns="http://www.w3.org/2000/svg">
<g clip-path="url(#clip0)">
<path d="M12.1466 47.6135C12.0193 47.6118 11.8977 47.5608 11.8077 47.4713C11.7177 47.3817 11.6664 47.2608 11.6648 47.1342V47.0831C11.6534 46.9897 11.6534 46.8952 11.6648 46.8019C11.6911 46.6825 11.7623 46.5776 11.8638 46.5087C11.9653 46.4398 12.0895 46.4121 12.2109 46.4312C12.3317 46.453 12.44 46.5187 12.5149 46.6156C12.5897 46.7124 12.6256 46.8335 12.6156 46.9552C12.612 47.0148 12.612 47.0746 12.6156 47.1342C12.6141 47.2586 12.5646 47.3777 12.4773 47.4669C12.39 47.5561 12.2717 47.6086 12.1466 47.6135Z" fill="black"/>
<path d="M124.037 15.942C124.037 15.942 118.087 21.8213 116.488 24.0899C114.522 26.8826 113.468 30.3974 113.005 34.9028C112.607 38.7371 113.487 42.514 113.648 47.0449C113.653 46.2395 113.344 45.4635 112.786 44.8804C112.227 44.2974 111.463 43.953 110.654 43.9199C109.808 43.93 109.001 44.2711 108.407 44.8692C107.813 45.4673 107.48 46.2743 107.48 47.1152C107.545 46.662 107.511 46.2003 107.381 45.7613C107.251 45.3223 107.027 44.9161 106.726 44.5704C106.424 44.2247 106.052 43.9475 105.633 43.7575C105.214 43.5675 104.76 43.4691 104.299 43.4691C103.839 43.4691 103.384 43.5675 102.966 43.7575C102.547 43.9475 102.175 44.2247 101.873 44.5704C101.571 44.9161 101.348 45.3223 101.218 45.7613C101.088 46.2003 101.054 46.662 101.119 47.1152C101.138 46.6882 101.071 46.2618 100.92 45.8617C100.769 45.4615 100.538 45.096 100.241 44.787C99.9439 44.4781 99.5871 44.2322 99.192 44.0643C98.7969 43.8963 98.3717 43.8097 97.942 43.8097C97.5123 43.8097 97.0871 43.8963 96.692 44.0643C96.2969 44.2322 95.9401 44.4781 95.6432 44.787C95.3462 45.096 95.1153 45.4615 94.9644 45.8617C94.8134 46.2618 94.7455 46.6882 94.7648 47.1152C94.8298 46.662 94.796 46.2003 94.666 45.7613C94.5359 45.3223 94.3126 44.9161 94.011 44.5704C93.7094 44.2247 93.3367 43.9475 92.9181 43.7575C92.4995 43.5675 92.0447 43.4691 91.5845 43.4691C91.1243 43.4691 90.6695 43.5675 90.2509 43.7575C89.8323 43.9475 89.4596 44.2247 89.158 44.5704C88.8565 44.9161 88.6331 45.3223 88.503 45.7613C88.373 46.2003 88.3393 46.662 88.4042 47.1152C88.4235 46.6882 88.3556 46.2618 88.2046 45.8617C88.0537 45.4615 87.8228 45.096 87.5258 44.787C87.2289 44.4781 86.8721 44.2322 86.477 44.0643C86.0819 43.8963 85.6567 43.8097 85.227 43.8097C84.7974 43.8097 84.3721 43.8963 83.977 44.0643C83.5819 44.2322 83.2251 44.4781 82.9282 44.787C82.6313 45.096 82.4004 45.4615 82.2494 45.8617C82.0985 46.2618 82.0306 46.6882 82.0499 47.1152C82.0692 46.6882 82.0013 46.2618 81.8504 45.8617C81.6994 45.4615 81.4685 45.096 81.1716 44.787C80.8747 44.4781 80.5179 44.2322 80.1228 44.0643C79.7277 43.8963 79.3025 43.8097 78.8728 43.8097C78.4431 43.8097 78.0179 43.8963 77.6228 44.0643C77.2277 44.2322 76.8709 44.4781 76.574 44.787C76.277 45.096 76.0461 45.4615 75.8952 45.8617C75.7442 46.2618 75.6763 46.6882 75.6956 47.1152C75.7606 46.662 75.7269 46.2003 75.5968 45.7613C75.4667 45.3223 75.2434 44.9161 74.9418 44.5704C74.6402 44.2247 74.2675 43.9475 73.8489 43.7575C73.4303 43.5675 72.9755 43.4691 72.5153 43.4691C72.0551 43.4691 71.6004 43.5675 71.1817 43.7575C70.7631 43.9475 70.3904 44.2247 70.0888 44.5704C69.7873 44.9161 69.5639 45.3223 69.4338 45.7613C69.3038 46.2003 69.2701 46.662 69.335 47.1152C69.3543 46.6882 69.2864 46.2618 69.1354 45.8617C68.9845 45.4615 68.7536 45.096 68.4566 44.787C68.1597 44.4781 67.8029 44.2322 67.4078 44.0643C67.0127 43.8963 66.5875 43.8097 66.1578 43.8097C65.7282 43.8097 65.3029 43.8963 64.9078 44.0643C64.5127 44.2322 64.156 44.4781 63.859 44.787C63.5621 45.096 63.3312 45.4615 63.1802 45.8617C63.0293 46.2618 62.9614 46.6882 62.9807 47.1152C63 46.6882 62.9321 46.2618 62.7812 45.8617C62.6302 45.4615 62.3993 45.096 62.1024 44.787C61.8055 44.4781 61.4487 44.2322 61.0536 44.0643C60.6585 43.8963 60.2333 43.8097 59.8036 43.8097C59.3739 43.8097 58.9487 43.8963 58.5536 44.0643C58.1585 44.2322 57.8017 44.4781 57.5048 44.787C57.2079 45.096 56.9769 45.4615 56.826 45.8617C56.675 46.2618 56.6071 46.6882 56.6265 47.1152C56.6914 46.662 56.6577 46.2003 56.5276 45.7613C56.3975 45.3223 56.1742 44.9161 55.8726 44.5704C55.5711 44.2247 55.1983 43.9475 54.7797 43.7575C54.3611 43.5675 53.9063 43.4691 53.4461 43.4691C52.986 43.4691 52.5312 43.5675 52.1125 43.7575C51.6939 43.9475 51.3212 44.2247 51.0196 44.5704C50.7181 44.9161 50.4947 45.3223 50.3646 45.7613C50.2346 46.2003 50.2009 46.662 50.2658 47.1152C50.2851 46.6882 50.2172 46.2618 50.0663 45.8617C49.9153 45.4615 49.6844 45.096 49.3875 44.787C49.0905 44.4781 48.7338 44.2322 48.3387 44.0643C47.9436 43.8963 47.5183 43.8097 47.0886 43.8097C46.659 43.8097 46.2337 43.8963 45.8386 44.0643C45.4435 44.2322 45.0868 44.4781 44.7898 44.787C44.4929 45.096 44.262 45.4615 44.111 45.8617C43.9601 46.2618 43.8922 46.6882 43.9115 47.1152C43.9308 46.6882 43.863 46.2618 43.712 45.8617C43.561 45.4615 43.3301 45.096 43.0332 44.787C42.7363 44.4781 42.3795 44.2322 41.9844 44.0643C41.5893 43.8963 41.1641 43.8097 40.7344 43.8097C40.3047 43.8097 39.8795 43.8963 39.4844 44.0643C39.0893 44.2322 38.7325 44.4781 38.4356 44.787C38.1387 45.096 37.9077 45.4615 37.7568 45.8617C37.6058 46.2618 37.538 46.6882 37.5573 47.1152C37.6222 46.662 37.5885 46.2003 37.4584 45.7613C37.3283 45.3223 37.105 44.9161 36.8034 44.5704C36.5019 44.2247 36.1291 43.9475 35.7105 43.7575C35.2919 43.5675 34.8371 43.4691 34.3769 43.4691C33.9168 43.4691 33.462 43.5675 33.0433 43.7575C32.6247 43.9475 32.252 44.2247 31.9504 44.5704C31.6489 44.9161 31.4255 45.3223 31.2954 45.7613C31.1654 46.2003 31.1317 46.662 31.1966 47.1152C31.2159 46.6882 31.148 46.2618 30.9971 45.8617C30.8461 45.4615 30.6152 45.096 30.3183 44.787C30.0213 44.4781 29.6646 44.2322 29.2695 44.0643C28.8744 43.8963 28.4491 43.8097 28.0195 43.8097C27.5898 43.8097 27.1645 43.8963 26.7694 44.0643C26.3743 44.2322 26.0176 44.4781 25.7206 44.787C25.4237 45.096 25.1928 45.4615 25.0418 45.8617C24.8909 46.2618 24.823 46.6882 24.8423 47.1152C24.9072 46.662 24.8735 46.2003 24.7435 45.7613C24.6134 45.3223 24.39 44.9161 24.0885 44.5704C23.7869 44.2247 23.4142 43.9475 22.9956 43.7575C22.5769 43.5675 22.1221 43.4691 21.662 43.4691C21.2018 43.4691 20.747 43.5675 20.3284 43.7575C19.9098 43.9475 19.537 44.2247 19.2355 44.5704C18.9339 44.9161 18.7106 45.3223 18.5805 45.7613C18.4504 46.2003 18.4167 46.662 18.4816 47.1152C18.4817 46.2743 18.1485 45.4673 17.5544 44.8692C16.9603 44.2711 16.153 43.93 15.3077 43.9199C14.4754 43.9186 13.6731 44.2288 13.0601 44.7888C12.4471 45.3488 12.0682 46.1176 11.9989 46.9426C12.1788 42.4692 13.3738 38.7691 12.9755 34.9347C12.5129 30.4613 11.4592 26.9146 9.49316 24.1219C7.89336 21.8532 1.94387 15.9739 1.94387 15.9739L20.5762 1.75488C20.5762 1.75488 31.8905 8.01125 39.851 9.42357C51.5765 11.5005 62.9807 3.99158 62.9807 3.99158C62.9807 3.99158 74.385 11.5005 86.1105 9.42357C94.071 8.01125 105.385 1.75488 105.385 1.75488L124.037 15.942Z" fill="#FFE066"/>
<path d="M107.981 47.0831H107.017C107.017 46.3713 106.733 45.6886 106.227 45.1852C105.721 44.6819 105.034 44.3991 104.319 44.3991C103.603 44.3991 102.917 44.6819 102.411 45.1852C101.905 45.6886 101.62 46.3713 101.62 47.0831H100.657C100.674 46.7201 100.618 46.3572 100.49 46.0165C100.363 45.6758 100.167 45.3644 99.9154 45.1012C99.6634 44.838 99.3602 44.6284 99.0243 44.4852C98.6884 44.342 98.3268 44.2682 97.9613 44.2682C97.5959 44.2682 97.2342 44.342 96.8983 44.4852C96.5624 44.6284 96.2593 44.838 96.0072 45.1012C95.7552 45.3644 95.5595 45.6758 95.4321 46.0165C95.3047 46.3572 95.2482 46.7201 95.2661 47.0831H94.3023C94.3023 46.3713 94.018 45.6886 93.512 45.1852C93.0059 44.6819 92.3195 44.3991 91.6038 44.3991C90.8882 44.3991 90.2018 44.6819 89.6957 45.1852C89.1897 45.6886 88.9054 46.3713 88.9054 47.0831H87.9416C87.9595 46.7201 87.903 46.3572 87.7756 46.0165C87.6482 45.6758 87.4525 45.3644 87.2005 45.1012C86.9484 44.838 86.6453 44.6284 86.3094 44.4852C85.9735 44.342 85.6118 44.2682 85.2464 44.2682C84.8809 44.2682 84.5193 44.342 84.1834 44.4852C83.8475 44.6284 83.5443 44.838 83.2923 45.1012C83.0403 45.3644 82.8446 45.6758 82.7172 46.0165C82.5898 46.3572 82.5333 46.7201 82.5511 47.0831H81.5874C81.6052 46.7201 81.5487 46.3572 81.4213 46.0165C81.2939 45.6758 81.0982 45.3644 80.8462 45.1012C80.5942 44.838 80.291 44.6284 79.9551 44.4852C79.6192 44.342 79.2576 44.2682 78.8921 44.2682C78.5267 44.2682 78.165 44.342 77.8291 44.4852C77.4932 44.6284 77.1901 44.838 76.938 45.1012C76.686 45.3644 76.4903 45.6758 76.3629 46.0165C76.2355 46.3572 76.179 46.7201 76.1969 47.0831H75.2331C75.2331 46.3713 74.9488 45.6886 74.4428 45.1852C73.9367 44.6819 73.2503 44.3991 72.5346 44.3991C71.819 44.3991 71.1326 44.6819 70.6265 45.1852C70.1205 45.6886 69.8362 46.3713 69.8362 47.0831H68.8724C68.8903 46.7201 68.8338 46.3572 68.7064 46.0165C68.579 45.6758 68.3833 45.3644 68.1313 45.1012C67.8792 44.838 67.5761 44.6284 67.2402 44.4852C66.9043 44.342 66.5426 44.2682 66.1772 44.2682C65.8117 44.2682 65.4501 44.342 65.1142 44.4852C64.7783 44.6284 64.4751 44.838 64.2231 45.1012C63.9711 45.3644 63.7754 45.6758 63.648 46.0165C63.5206 46.3572 63.4641 46.7201 63.4819 47.0831H62.5182C62.536 46.7201 62.4795 46.3572 62.3521 46.0165C62.2247 45.6758 62.029 45.3644 61.777 45.1012C61.525 44.838 61.2218 44.6284 60.8859 44.4852C60.55 44.342 60.1884 44.2682 59.8229 44.2682C59.4575 44.2682 59.0958 44.342 58.7599 44.4852C58.424 44.6284 58.1209 44.838 57.8688 45.1012C57.6168 45.3644 57.4212 45.6758 57.2938 46.0165C57.1663 46.3572 57.1098 46.7201 57.1277 47.0831H56.1447C56.1447 46.3713 55.8604 45.6886 55.3543 45.1852C54.8482 44.6819 54.1619 44.3991 53.4462 44.3991C52.7305 44.3991 52.0441 44.6819 51.5381 45.1852C51.032 45.6886 50.7477 46.3713 50.7477 47.0831H49.784C49.8018 46.7201 49.7453 46.3572 49.6179 46.0165C49.4905 45.6758 49.2948 45.3644 49.0428 45.1012C48.7908 44.838 48.4876 44.6284 48.1517 44.4852C47.8158 44.342 47.4542 44.2682 47.0887 44.2682C46.7233 44.2682 46.3616 44.342 46.0257 44.4852C45.6898 44.6284 45.3867 44.838 45.1346 45.1012C44.8826 45.3644 44.6869 45.6758 44.5595 46.0165C44.4321 46.3572 44.3756 46.7201 44.3935 47.0831H43.4297C43.4475 46.7201 43.391 46.3572 43.2636 46.0165C43.1362 45.6758 42.9406 45.3644 42.6886 45.1012C42.4365 44.838 42.1334 44.6284 41.7975 44.4852C41.4616 44.342 41.0999 44.2682 40.7345 44.2682C40.369 44.2682 40.0074 44.342 39.6715 44.4852C39.3356 44.6284 39.0324 44.838 38.7804 45.1012C38.5283 45.3644 38.3327 45.6758 38.2053 46.0165C38.0779 46.3572 38.0214 46.7201 38.0392 47.0831H37.0755C37.0755 46.3713 36.7912 45.6886 36.2851 45.1852C35.779 44.6819 35.0927 44.3991 34.377 44.3991C33.6613 44.3991 32.9749 44.6819 32.4689 45.1852C31.9628 45.6886 31.6785 46.3713 31.6785 47.0831H30.7148C30.7326 46.7201 30.6761 46.3572 30.5487 46.0165C30.4213 45.6758 30.2256 45.3644 29.9736 45.1012C29.7216 44.838 29.4184 44.6284 29.0825 44.4852C28.7466 44.342 28.385 44.2682 28.0195 44.2682C27.6541 44.2682 27.2924 44.342 26.9565 44.4852C26.6206 44.6284 26.3175 44.838 26.0654 45.1012C25.8134 45.3644 25.6178 45.6758 25.4903 46.0165C25.3629 46.3572 25.3064 46.7201 25.3243 47.0831H24.3605C24.3605 46.3713 24.0762 45.6886 23.5702 45.1852C23.0641 44.6819 22.3777 44.3991 21.6621 44.3991C20.9464 44.3991 20.26 44.6819 19.7539 45.1852C19.2479 45.6886 18.9636 46.3713 18.9636 47.0831H17.9998C18.0024 46.729 17.9348 46.3778 17.8008 46.0496C17.6669 45.7215 17.4693 45.4228 17.2194 45.1706C16.9694 44.9184 16.6719 44.7176 16.3439 44.5798C16.0159 44.4419 15.6639 44.3697 15.3078 44.3672C14.6013 44.3672 13.9203 44.6291 13.3975 45.1017C12.8748 45.5744 12.548 46.2239 12.4808 46.9234L11.5171 46.885C11.6112 45.1231 11.7999 43.3675 12.0825 41.6256C12.4942 39.4226 12.6323 37.1776 12.4937 34.9411C12.0247 30.3398 10.9453 26.9784 9.10131 24.3583C7.54005 22.1471 1.66124 16.3317 1.60342 16.2742L1.2115 15.8844L20.5505 1.14771L20.8268 1.30108C20.9425 1.36499 32.1668 7.53189 39.9538 8.91864C41.3264 9.15675 42.7174 9.27436 44.1108 9.27012C53.9281 9.27012 62.6467 3.61447 62.7431 3.55695L63.0065 3.38441L63.2699 3.55695C63.3599 3.61447 72.0785 9.27012 81.9022 9.27012C83.2955 9.27436 84.6865 9.15675 86.0591 8.91864C93.8461 7.53189 105.07 1.36499 105.186 1.30108L105.462 1.14771L105.713 1.33942L124.782 15.8908L124.39 16.2806C124.332 16.3381 118.454 22.1535 116.892 24.3647C115.048 26.9848 113.969 30.3462 113.5 34.9474C113.337 37.3465 113.425 39.7559 113.763 42.1368C113.93 43.6834 114.098 45.281 114.162 46.9937L113.204 47.0384C113.215 46.3551 112.959 45.6944 112.489 45.1959C112.019 44.6974 111.372 44.4002 110.686 44.3672C110.329 44.368 109.975 44.439 109.646 44.5761C109.316 44.7132 109.017 44.9137 108.766 45.1661C108.515 45.4184 108.316 45.7177 108.181 46.0467C108.047 46.3757 107.978 46.7279 107.981 47.0831ZM91.6038 43.4086C92.2518 43.4083 92.888 43.5798 93.4471 43.9056C94.0061 44.2314 94.4677 44.6995 94.7842 45.2618C95.1008 44.7005 95.562 44.2332 96.1204 43.9079C96.6788 43.5827 97.3142 43.4112 97.9613 43.4112C98.6084 43.4112 99.2438 43.5827 99.8022 43.9079C100.361 44.2332 100.822 44.7005 101.138 45.2618C101.455 44.699 101.916 44.2302 102.475 43.9039C103.034 43.5775 103.671 43.4055 104.319 43.4055C104.967 43.4055 105.603 43.5775 106.163 43.9039C106.722 44.2302 107.183 44.699 107.499 45.2618C107.815 44.7005 108.276 44.2329 108.833 43.9072C109.391 43.5815 110.026 43.4094 110.673 43.4086C111.106 43.4066 111.534 43.4897 111.935 43.6531C112.335 43.8165 112.699 44.057 113.005 44.3608C112.941 43.6386 112.864 42.9293 112.793 42.2391C112.446 39.7926 112.355 37.3167 112.523 34.8516C113.018 30.0842 114.149 26.5438 116.096 23.8151C117.477 21.8468 121.949 17.3478 123.304 15.9866L105.36 2.29162C103.535 3.28216 93.5635 8.55438 86.2133 9.85806C84.7859 10.109 83.3389 10.2331 81.8894 10.2287C72.7467 10.2287 64.542 5.48051 63.0001 4.52193C61.4388 5.48051 53.2534 10.2287 44.1108 10.2287C42.6612 10.2331 41.2142 10.109 39.7868 9.85806C32.4367 8.57994 22.4395 3.28216 20.6405 2.29162L2.69566 15.9866C4.05774 17.3478 8.52307 21.8468 9.90443 23.8087C11.8319 26.5758 12.982 30.0778 13.4767 34.8516C13.6224 37.165 13.48 39.4875 13.0526 41.7662C12.9306 42.6417 12.8021 43.53 12.6993 44.4502C13.4108 43.7843 14.3501 43.412 15.3271 43.4086C15.9739 43.4094 16.6088 43.5815 17.1666 43.9072C17.7244 44.2329 18.185 44.7005 18.501 45.2618C18.8171 44.699 19.2785 44.2302 19.8376 43.9039C20.3966 43.5775 21.0331 43.4055 21.6813 43.4055C22.3295 43.4055 22.966 43.5775 23.5251 43.9039C24.0841 44.2302 24.5455 44.699 24.8617 45.2618C25.1783 44.7005 25.6395 44.2332 26.1979 43.9079C26.7563 43.5827 27.3917 43.4112 28.0388 43.4112C28.6859 43.4112 29.3213 43.5827 29.8797 43.9079C30.4381 44.2332 30.8993 44.7005 31.2159 45.2618C31.5321 44.699 31.9935 44.2302 32.5525 43.9039C33.1116 43.5775 33.748 43.4055 34.3963 43.4055C35.0445 43.4055 35.681 43.5775 36.24 43.9039C36.7991 44.2302 37.2605 44.699 37.5766 45.2618C37.8932 44.7005 38.3544 44.2332 38.9128 43.9079C39.4712 43.5827 40.1066 43.4112 40.7537 43.4112C41.4008 43.4112 42.0363 43.5827 42.5946 43.9079C43.153 44.2332 43.6143 44.7005 43.9309 45.2618C44.2475 44.7005 44.7087 44.2332 45.2671 43.9079C45.8255 43.5827 46.4609 43.4112 47.108 43.4112C47.7551 43.4112 48.3905 43.5827 48.9489 43.9079C49.5073 44.2332 49.9685 44.7005 50.2851 45.2618C50.6012 44.699 51.0626 44.2302 51.6217 43.9039C52.1808 43.5775 52.8172 43.4055 53.4655 43.4055C54.1137 43.4055 54.7501 43.5775 55.3092 43.9039C55.8683 44.2302 56.3297 44.699 56.6458 45.2618C56.9624 44.7005 57.4236 44.2332 57.982 43.9079C58.5404 43.5827 59.1758 43.4112 59.8229 43.4112C60.47 43.4112 61.1054 43.5827 61.6638 43.9079C62.2222 44.2332 62.6835 44.7005 63.0001 45.2618C63.3167 44.7005 63.7779 44.2332 64.3363 43.9079C64.8947 43.5827 65.5301 43.4112 66.1772 43.4112C66.8243 43.4112 67.4597 43.5827 68.0181 43.9079C68.5765 44.2332 69.0377 44.7005 69.3543 45.2618C69.6704 44.699 70.1318 44.2302 70.6909 43.9039C71.25 43.5775 71.8864 43.4055 72.5346 43.4055C73.1829 43.4055 73.8193 43.5775 74.3784 43.9039C74.9375 44.2302 75.3989 44.699 75.715 45.2618C76.0316 44.7005 76.4928 44.2332 77.0512 43.9079C77.6096 43.5827 78.245 43.4112 78.8921 43.4112C79.5392 43.4112 80.1746 43.5827 80.733 43.9079C81.2914 44.2332 81.7527 44.7005 82.0693 45.2618C82.3859 44.7005 82.8471 44.2332 83.4055 43.9079C83.9639 43.5827 84.5993 43.4112 85.2464 43.4112C85.8935 43.4112 86.5289 43.5827 87.0873 43.9079C87.6457 44.2332 88.1069 44.7005 88.4235 45.2618C88.74 44.6995 89.2016 44.2314 89.7606 43.9056C90.3197 43.5798 90.9559 43.4083 91.6038 43.4086Z" fill="black"/>
<path d="M113.706 48.8278C113.558 54.8797 113.365 57.225 109.459 63.6156C107.049 67.5586 103.034 70.6452 100.348 72.3643C96.1397 75.0547 93.4863 77.8027 81.523 79.5537C78.3684 80.0138 73.1706 80.1608 70.5492 81.1002C68.3704 81.9054 66.3963 83.1773 64.7668 84.8259C64.0536 85.6862 63.4091 86.6008 62.8393 87.5611C62.2695 86.6008 61.6251 85.6862 60.9118 84.8259C59.2823 83.1773 57.3082 81.9054 55.1294 81.1002C52.5209 80.1608 47.3103 80.0138 44.1556 79.5537C32.1924 77.8027 29.5389 75.0803 25.3306 72.3643C22.6257 70.6389 18.6294 67.5586 16.22 63.6156C12.3137 57.225 12.1209 54.8797 11.9732 48.8278C11.9732 48.1888 11.9732 47.5945 11.9732 47.0001C11.9732 46.9234 11.9732 46.8468 11.9732 46.7765C12.025 45.9603 12.3932 45.1961 13.0002 44.6446C13.6072 44.0931 14.4057 43.7974 15.2275 43.8197C16.0494 43.8421 16.8304 44.1808 17.4062 44.7645C17.982 45.3481 18.3077 46.1313 18.3146 46.949C18.2496 46.4959 18.2834 46.0342 18.4134 45.5951C18.5435 45.1561 18.7668 44.75 19.0684 44.4043C19.37 44.0586 19.7427 43.7813 20.1613 43.5913C20.5799 43.4013 21.0347 43.303 21.4949 43.303C21.9551 43.303 22.4099 43.4013 22.8285 43.5913C23.2471 43.7813 23.6198 44.0586 23.9214 44.4043C24.2229 44.75 24.4463 45.1561 24.5764 45.5951C24.7064 46.0342 24.7402 46.4959 24.6752 46.949C24.6559 46.5221 24.7238 46.0956 24.8748 45.6955C25.0257 45.2954 25.2566 44.9298 25.5536 44.6209C25.8505 44.312 26.2073 44.0661 26.6024 43.8981C26.9975 43.7301 27.4227 43.6435 27.8524 43.6435C28.282 43.6435 28.7073 43.7301 29.1024 43.8981C29.4975 44.0661 29.8543 44.312 30.1512 44.6209C30.4481 44.9298 30.679 45.2954 30.83 45.6955C30.9809 46.0956 31.0488 46.5221 31.0295 46.949C30.9646 46.4959 30.9983 46.0342 31.1284 45.5951C31.2584 45.1561 31.4818 44.75 31.7833 44.4043C32.0849 44.0586 32.4576 43.7813 32.8763 43.5913C33.2949 43.4013 33.7497 43.303 34.2098 43.303C34.67 43.303 35.1248 43.4013 35.5434 43.5913C35.9621 43.7813 36.3348 44.0586 36.6363 44.4043C36.9379 44.75 37.1613 45.1561 37.2913 45.5951C37.4214 46.0342 37.4551 46.4959 37.3902 46.949C37.3709 46.5221 37.4387 46.0956 37.5897 45.6955C37.7407 45.2954 37.9716 44.9298 38.2685 44.6209C38.5654 44.312 38.9222 44.0661 39.3173 43.8981C39.7124 43.7301 40.1376 43.6435 40.5673 43.6435C40.997 43.6435 41.4222 43.7301 41.8173 43.8981C42.2124 44.0661 42.5692 44.312 42.8661 44.6209C43.163 44.9298 43.394 45.2954 43.5449 45.6955C43.6959 46.0956 43.7637 46.5221 43.7444 46.949C43.7251 46.5221 43.793 46.0956 43.944 45.6955C44.0949 45.2954 44.3258 44.9298 44.6228 44.6209C44.9197 44.312 45.2765 44.0661 45.6716 43.8981C46.0667 43.7301 46.4919 43.6435 46.9216 43.6435C47.3512 43.6435 47.7765 43.7301 48.1716 43.8981C48.5667 44.0661 48.9235 44.312 49.2204 44.6209C49.5173 44.9298 49.7482 45.2954 49.8992 45.6955C50.0501 46.0956 50.118 46.5221 50.0987 46.949C50.0338 46.4959 50.0675 46.0342 50.1975 45.5951C50.3276 45.1561 50.551 44.75 50.8525 44.4043C51.1541 44.0586 51.5268 43.7813 51.9454 43.5913C52.3641 43.4013 52.8189 43.303 53.279 43.303C53.7392 43.303 54.194 43.4013 54.6126 43.5913C55.0313 43.7813 55.404 44.0586 55.7055 44.4043C56.0071 44.75 56.2305 45.1561 56.3605 45.5951C56.4906 46.0342 56.5243 46.4959 56.4594 46.949C56.4401 46.5221 56.5079 46.0956 56.6589 45.6955C56.8099 45.2954 57.0408 44.9298 57.3377 44.6209C57.6346 44.312 57.9914 44.0661 58.3865 43.8981C58.7816 43.7301 59.2068 43.6435 59.6365 43.6435C60.0662 43.6435 60.4914 43.7301 60.8865 43.8981C61.2816 44.0661 61.6384 44.312 61.9353 44.6209C62.2322 44.9298 62.4632 45.2954 62.6141 45.6955C62.7651 46.0956 62.8329 46.5221 62.8136 46.949C62.7943 46.5221 62.8622 46.0956 63.0132 45.6955C63.1641 45.2954 63.395 44.9298 63.6919 44.6209C63.9889 44.312 64.3456 44.0661 64.7407 43.8981C65.1358 43.7301 65.5611 43.6435 65.9908 43.6435C66.4204 43.6435 66.8457 43.7301 67.2408 43.8981C67.6359 44.0661 67.9926 44.312 68.2896 44.6209C68.5865 44.9298 68.8174 45.2954 68.9684 45.6955C69.1193 46.0956 69.1872 46.5221 69.1679 46.949C69.103 46.4959 69.1367 46.0342 69.2667 45.5951C69.3968 45.1561 69.6202 44.75 69.9217 44.4043C70.2233 44.0586 70.596 43.7813 71.0146 43.5913C71.4333 43.4013 71.8881 43.303 72.3482 43.303C72.8084 43.303 73.2632 43.4013 73.6818 43.5913C74.1004 43.7813 74.4732 44.0586 74.7747 44.4043C75.0763 44.75 75.2996 45.1561 75.4297 45.5951C75.5598 46.0342 75.5935 46.4959 75.5286 46.949C75.5093 46.5221 75.5771 46.0956 75.7281 45.6955C75.879 45.2954 76.11 44.9298 76.4069 44.6209C76.7038 44.312 77.0606 44.0661 77.4557 43.8981C77.8508 43.7301 78.276 43.6435 78.7057 43.6435C79.1354 43.6435 79.5606 43.7301 79.9557 43.8981C80.3508 44.0661 80.7076 44.312 81.0045 44.6209C81.3014 44.9298 81.5323 45.2954 81.6833 45.6955C81.8343 46.0956 81.9021 46.5221 81.8828 46.949C81.8635 46.5221 81.9314 46.0956 82.0823 45.6955C82.2333 45.2954 82.4642 44.9298 82.7611 44.6209C83.0581 44.312 83.4148 44.0661 83.8099 43.8981C84.205 43.7301 84.6303 43.6435 85.06 43.6435C85.4896 43.6435 85.9149 43.7301 86.31 43.8981C86.7051 44.0661 87.0618 44.312 87.3588 44.6209C87.6557 44.9298 87.8866 45.2954 88.0376 45.6955C88.1885 46.0956 88.2564 46.5221 88.2371 46.949C88.1722 46.4959 88.2059 46.0342 88.3359 45.5951C88.466 45.1561 88.6894 44.75 88.9909 44.4043C89.2925 44.0586 89.6652 43.7813 90.0838 43.5913C90.5025 43.4013 90.9573 43.303 91.4174 43.303C91.8776 43.303 92.3324 43.4013 92.751 43.5913C93.1696 43.7813 93.5424 44.0586 93.8439 44.4043C94.1455 44.75 94.3688 45.1561 94.4989 45.5951C94.629 46.0342 94.6627 46.4959 94.5978 46.949C94.5785 46.5221 94.6463 46.0956 94.7973 45.6955C94.9482 45.2954 95.1792 44.9298 95.4761 44.6209C95.773 44.312 96.1298 44.0661 96.5249 43.8981C96.92 43.7301 97.3452 43.6435 97.7749 43.6435C98.2046 43.6435 98.6298 43.7301 99.0249 43.8981C99.42 44.0661 99.7768 44.312 100.074 44.6209C100.371 44.9298 100.602 45.2954 100.752 45.6955C100.903 46.0956 100.971 46.5221 100.952 46.949C100.887 46.4959 100.921 46.0342 101.051 45.5951C101.181 45.1561 101.404 44.75 101.706 44.4043C102.007 44.0586 102.38 43.7813 102.799 43.5913C103.217 43.4013 103.672 43.303 104.132 43.303C104.593 43.303 105.047 43.4013 105.466 43.5913C105.885 43.7813 106.257 44.0586 106.559 44.4043C106.86 44.75 107.084 45.1561 107.214 45.5951C107.344 46.0342 107.378 46.4959 107.313 46.949C107.32 46.1313 107.645 45.3481 108.221 44.7645C108.797 44.1808 109.578 43.8421 110.4 43.8197C111.222 43.7974 112.02 44.0931 112.627 44.6446C113.234 45.1961 113.602 45.9603 113.654 46.7765C113.654 46.8468 113.654 46.9234 113.654 47.0001C113.718 47.5945 113.718 48.2016 113.706 48.8278Z" fill="#B6E7E6"/>
<path d="M62.8394 88.0405C62.7577 88.0394 62.6776 88.0184 62.6059 87.9794C62.5342 87.9405 62.4732 87.8846 62.4282 87.8169C61.8875 86.8776 61.2639 85.9879 60.565 85.1584C58.9861 83.5639 57.0763 82.3316 54.9688 81.5477C53.2727 80.9086 50.3172 80.6658 47.7151 80.4166C46.3851 80.2952 45.1451 80.1801 44.085 80.0267C33.5931 78.493 30.2329 76.1924 26.6735 73.8279C26.1466 73.47 25.6198 73.1185 25.0672 72.7671C22.7286 71.2717 18.4174 68.1339 15.8089 63.865C11.8961 57.4744 11.6391 55.0013 11.4913 48.8407C11.4913 48.1186 11.4913 47.5243 11.4913 46.9747C11.4913 46.9044 11.4913 46.8149 11.4913 46.7319C11.5305 45.9461 11.8252 45.1942 12.3312 44.5895C12.8372 43.9847 13.5271 43.5599 14.2969 43.3789C15.0666 43.198 15.8747 43.2707 16.5993 43.5861C17.324 43.9015 17.9259 44.4426 18.3146 45.1278C18.6307 44.5649 19.0922 44.0962 19.6512 43.7698C20.2103 43.4435 20.8468 43.2715 21.495 43.2715C22.1432 43.2715 22.7797 43.4435 23.3387 43.7698C23.8978 44.0962 24.3592 44.5649 24.6753 45.1278C24.9919 44.5665 25.4531 44.0992 26.0115 43.7739C26.5699 43.4486 27.2053 43.2772 27.8524 43.2772C28.4995 43.2772 29.1349 43.4486 29.6933 43.7739C30.2517 44.0992 30.713 44.5665 31.0296 45.1278C31.3457 44.5649 31.8071 44.0962 32.3662 43.7698C32.9252 43.4435 33.5617 43.2715 34.2099 43.2715C34.8581 43.2715 35.4946 43.4435 36.0536 43.7698C36.6127 44.0962 37.0741 44.5649 37.3902 45.1278C37.7068 44.5665 38.1681 44.0992 38.7265 43.7739C39.2849 43.4486 39.9203 43.2772 40.5674 43.2772C41.2145 43.2772 41.8499 43.4486 42.4083 43.7739C42.9667 44.0992 43.4279 44.5665 43.7445 45.1278C44.0611 44.5665 44.5223 44.0992 45.0807 43.7739C45.6391 43.4486 46.2745 43.2772 46.9216 43.2772C47.5687 43.2772 48.2041 43.4486 48.7625 43.7739C49.3209 44.0992 49.7821 44.5665 50.0988 45.1278C50.4149 44.5649 50.8763 44.0962 51.4353 43.7698C51.9944 43.4435 52.6309 43.2715 53.2791 43.2715C53.9273 43.2715 54.5638 43.4435 55.1228 43.7698C55.6819 44.0962 56.1433 44.5649 56.4594 45.1278C56.776 44.5665 57.2373 44.0992 57.7956 43.7739C58.354 43.4486 58.9895 43.2772 59.6366 43.2772C60.2837 43.2772 60.9191 43.4486 61.4775 43.7739C62.0359 44.0992 62.4971 44.5665 62.8137 45.1278C63.1303 44.5665 63.5915 44.0992 64.1499 43.7739C64.7083 43.4486 65.3437 43.2772 65.9908 43.2772C66.6379 43.2772 67.2733 43.4486 67.8317 43.7739C68.3901 44.0992 68.8513 44.5665 69.1679 45.1278C69.4841 44.5649 69.9455 44.0962 70.5045 43.7698C71.0636 43.4435 71.7001 43.2715 72.3483 43.2715C72.9965 43.2715 73.633 43.4435 74.192 43.7698C74.7511 44.0962 75.2125 44.5649 75.5286 45.1278C75.8452 44.5665 76.3064 44.0992 76.8648 43.7739C77.4232 43.4486 78.0587 43.2772 78.7058 43.2772C79.3529 43.2772 79.9883 43.4486 80.5467 43.7739C81.1051 44.0992 81.5663 44.5665 81.8829 45.1278C82.1995 44.5665 82.6607 44.0992 83.2191 43.7739C83.7775 43.4486 84.4129 43.2772 85.06 43.2772C85.7071 43.2772 86.3425 43.4486 86.9009 43.7739C87.4593 44.0992 87.9205 44.5665 88.2371 45.1278C88.5533 44.5649 89.0147 44.0962 89.5737 43.7698C90.1328 43.4435 90.7693 43.2715 91.4175 43.2715C92.0657 43.2715 92.7022 43.4435 93.2612 43.7698C93.8203 44.0962 94.2817 44.5649 94.5978 45.1278C94.9144 44.5665 95.3756 44.0992 95.934 43.7739C96.4924 43.4486 97.1279 43.2772 97.775 43.2772C98.4221 43.2772 99.0575 43.4486 99.6159 43.7739C100.174 44.0992 100.635 44.5665 100.952 45.1278C101.268 44.5649 101.73 44.0962 102.289 43.7698C102.848 43.4435 103.484 43.2715 104.132 43.2715C104.781 43.2715 105.417 43.4435 105.976 43.7698C106.535 44.0962 106.997 44.5649 107.313 45.1278C107.695 44.4226 108.301 43.8633 109.037 43.5373C109.773 43.2114 110.597 43.1372 111.379 43.3263C112.162 43.5155 112.86 43.9573 113.363 44.5827C113.867 45.2082 114.147 45.9819 114.162 46.783C114.162 46.8469 114.162 46.9427 114.162 47.0322C114.162 47.5626 114.162 48.1506 114.162 48.8663C114.014 55.0332 113.757 57.4872 109.844 63.8969C107.236 68.1658 102.918 71.3036 100.586 72.799C100.033 73.1505 99.5065 73.502 98.9796 73.8598C95.4202 76.2563 92.06 78.525 81.5681 80.0587C80.5208 80.2121 79.2679 80.3271 77.938 80.4485C75.3359 80.6978 72.3804 80.9725 70.6907 81.5797C68.5816 82.3641 66.6697 83.5962 65.0881 85.1903C64.3891 86.0199 63.7656 86.9095 63.2249 87.8488C63.179 87.9073 63.1206 87.9548 63.0539 87.988C62.9872 88.0212 62.9139 88.0391 62.8394 88.0405ZM15.1664 44.2268C14.4747 44.2292 13.8103 44.4959 13.3105 44.9716C12.8108 45.4473 12.5137 46.0957 12.4808 46.783C12.4808 46.8597 12.4808 46.9236 12.4808 46.9875C12.4808 47.5371 12.4808 48.1058 12.4808 48.8024C12.6286 54.9054 12.8599 57.1101 16.657 63.3537C19.1691 67.4565 23.3453 70.4984 25.6133 71.9427C26.1787 72.3005 26.7056 72.6584 27.2388 73.0163C30.7019 75.3552 33.9786 77.56 44.2521 79.0618C45.2736 79.2151 46.5136 79.3302 47.8307 79.4516C50.6192 79.7136 53.5104 79.982 55.3222 80.6338C57.5658 81.4666 59.6003 82.775 61.2846 84.4682C61.8726 85.1464 62.4013 85.8733 62.8651 86.641C64.5342 83.7814 67.2177 81.6457 70.3887 80.653C72.1941 80.014 75.0853 79.7328 77.8737 79.4708C79.1908 79.3493 80.4437 79.2343 81.4524 79.0809C91.7323 77.5791 95.0026 75.3744 98.4656 73.0355C98.9989 72.6776 99.5257 72.3197 100.085 71.9682C102.359 70.5176 106.51 67.4948 109.047 63.3729C112.845 57.1549 113.076 54.9246 113.224 48.8216C113.224 48.125 113.224 47.5435 113.224 47.0258C113.228 46.9599 113.228 46.8937 113.224 46.8277C113.178 46.1388 112.866 45.4943 112.353 45.0287C111.841 44.563 111.167 44.3123 110.473 44.3288C109.779 44.3453 109.119 44.6277 108.629 45.1172C108.14 45.6066 107.859 46.2652 107.846 46.9555C107.846 47.0826 107.795 47.2046 107.705 47.2944C107.615 47.3843 107.492 47.4348 107.364 47.4348C107.236 47.4348 107.114 47.3843 107.023 47.2944C106.933 47.2046 106.882 47.0826 106.882 46.9555C106.882 46.603 106.812 46.254 106.677 45.9284C106.541 45.6027 106.342 45.3069 106.092 45.0576C105.841 44.8084 105.544 44.6107 105.216 44.4758C104.889 44.3409 104.538 44.2715 104.184 44.2715C103.829 44.2715 103.479 44.3409 103.151 44.4758C102.824 44.6107 102.526 44.8084 102.276 45.0576C102.025 45.3069 101.826 45.6027 101.691 45.9284C101.555 46.254 101.485 46.603 101.485 46.9555C101.485 47.0826 101.435 47.2046 101.344 47.2944C101.254 47.3843 101.131 47.4348 101.003 47.4348C100.876 47.4348 100.753 47.3843 100.663 47.2944C100.572 47.2046 100.522 47.0826 100.522 46.9555C100.539 46.5925 100.483 46.2296 100.356 45.8889C100.228 45.5482 100.032 45.2368 99.7804 44.9736C99.5284 44.7103 99.2252 44.5008 98.8893 44.3576C98.5534 44.2144 98.1918 44.1406 97.8263 44.1406C97.4609 44.1406 97.0993 44.2144 96.7634 44.3576C96.4275 44.5008 96.1243 44.7103 95.8723 44.9736C95.6202 45.2368 95.4246 45.5482 95.2972 45.8889C95.1698 46.2296 95.1133 46.5925 95.1311 46.9555C95.1311 47.0826 95.0803 47.2046 94.99 47.2944C94.8996 47.3843 94.777 47.4348 94.6492 47.4348C94.5214 47.4348 94.3989 47.3843 94.3085 47.2944C94.2181 47.2046 94.1673 47.0826 94.1673 46.9555C94.1673 46.2437 93.883 45.561 93.377 45.0576C92.8709 44.5543 92.1846 44.2715 91.4689 44.2715C90.7532 44.2715 90.0668 44.5543 89.5608 45.0576C89.0547 45.561 88.7704 46.2437 88.7704 46.9555C88.7704 47.0826 88.7196 47.2046 88.6293 47.2944C88.5389 47.3843 88.4163 47.4348 88.2885 47.4348C88.1607 47.4348 88.0382 47.3843 87.9478 47.2944C87.8574 47.2046 87.8067 47.0826 87.8067 46.9555C87.8245 46.5925 87.768 46.2296 87.6406 45.8889C87.5132 45.5482 87.3175 45.2368 87.0655 44.9736C86.8135 44.7103 86.5103 44.5008 86.1744 44.3576C85.8385 44.2144 85.4769 44.1406 85.1114 44.1406C84.746 44.1406 84.3843 44.2144 84.0484 44.3576C83.7125 44.5008 83.4093 44.7103 83.1573 44.9736C82.9053 45.2368 82.7096 45.5482 82.5822 45.8889C82.4548 46.2296 82.3983 46.5925 82.4162 46.9555C82.4162 47.0826 82.3654 47.2046 82.275 47.2944C82.1846 47.3843 82.0621 47.4348 81.9343 47.4348C81.8065 47.4348 81.6839 47.3843 81.5935 47.2944C81.5032 47.2046 81.4524 47.0826 81.4524 46.9555C81.4702 46.5925 81.4137 46.2296 81.2863 45.8889C81.1589 45.5482 80.9633 45.2368 80.7112 44.9736C80.4592 44.7103 80.1561 44.5008 79.8202 44.3576C79.4842 44.2144 79.1226 44.1406 78.7572 44.1406C78.3917 44.1406 78.0301 44.2144 77.6942 44.3576C77.3583 44.5008 77.0551 44.7103 76.8031 44.9736C76.551 45.2368 76.3554 45.5482 76.228 45.8889C76.1006 46.2296 76.0441 46.5925 76.0619 46.9555C76.0619 47.0826 76.0111 47.2046 75.9208 47.2944C75.8304 47.3843 75.7078 47.4348 75.58 47.4348C75.4522 47.4348 75.3297 47.3843 75.2393 47.2944C75.1489 47.2046 75.0982 47.0826 75.0982 46.9555C75.0982 46.2437 74.8139 45.561 74.3078 45.0576C73.8017 44.5543 73.1154 44.2715 72.3997 44.2715C71.684 44.2715 70.9976 44.5543 70.4916 45.0576C69.9855 45.561 69.7012 46.2437 69.7012 46.9555C69.7012 47.0826 69.6504 47.2046 69.5601 47.2944C69.4697 47.3843 69.3471 47.4348 69.2193 47.4348C69.0915 47.4348 68.969 47.3843 68.8786 47.2944C68.7882 47.2046 68.7375 47.0826 68.7375 46.9555C68.7553 46.5925 68.6988 46.2296 68.5714 45.8889C68.444 45.5482 68.2483 45.2368 67.9963 44.9736C67.7443 44.7103 67.4411 44.5008 67.1052 44.3576C66.7693 44.2144 66.4077 44.1406 66.0422 44.1406C65.6768 44.1406 65.3151 44.2144 64.9792 44.3576C64.6433 44.5008 64.3402 44.7103 64.0881 44.9736C63.8361 45.2368 63.6404 45.5482 63.513 45.8889C63.3856 46.2296 63.3291 46.5925 63.347 46.9555C63.347 47.0826 63.2962 47.2046 63.2058 47.2944C63.1155 47.3843 62.9929 47.4348 62.8651 47.4348C62.7373 47.4348 62.6147 47.3843 62.5244 47.2944C62.434 47.2046 62.3832 47.0826 62.3832 46.9555C62.4011 46.5925 62.3445 46.2296 62.2171 45.8889C62.0897 45.5482 61.8941 45.2368 61.6421 44.9736C61.39 44.7103 61.0869 44.5008 60.751 44.3576C60.4151 44.2144 60.0534 44.1406 59.688 44.1406C59.3225 44.1406 58.9609 44.2144 58.625 44.3576C58.2891 44.5008 57.9859 44.7103 57.7339 44.9736C57.4818 45.2368 57.2862 45.5482 57.1588 45.8889C57.0314 46.2296 56.9749 46.5925 56.9927 46.9555C56.9927 47.0826 56.9419 47.2046 56.8516 47.2944C56.7612 47.3843 56.6386 47.4348 56.5108 47.4348C56.383 47.4348 56.2605 47.3843 56.1701 47.2944C56.0797 47.2046 56.029 47.0826 56.029 46.9555C56.029 46.2437 55.7447 45.561 55.2386 45.0576C54.7325 44.5543 54.0462 44.2715 53.3305 44.2715C52.6148 44.2715 51.9284 44.5543 51.4224 45.0576C50.9163 45.561 50.632 46.2437 50.632 46.9555C50.632 47.0826 50.5813 47.2046 50.4909 47.2944C50.4005 47.3843 50.278 47.4348 50.1502 47.4348C50.0224 47.4348 49.8998 47.3843 49.8094 47.2944C49.719 47.2046 49.6683 47.0826 49.6683 46.9555C49.6861 46.5925 49.6296 46.2296 49.5022 45.8889C49.3748 45.5482 49.1791 45.2368 48.9271 44.9736C48.6751 44.7103 48.3719 44.5008 48.036 44.3576C47.7001 44.2144 47.3385 44.1406 46.973 44.1406C46.6076 44.1406 46.2459 44.2144 45.91 44.3576C45.5741 44.5008 45.271 44.7103 45.0189 44.9736C44.7669 45.2368 44.5713 45.5482 44.4439 45.8889C44.3164 46.2296 44.2599 46.5925 44.2778 46.9555C44.2778 47.0826 44.227 47.2046 44.1366 47.2944C44.0463 47.3843 43.9237 47.4348 43.7959 47.4348C43.6681 47.4348 43.5455 47.3843 43.4552 47.2944C43.3648 47.2046 43.314 47.0826 43.314 46.9555C43.3319 46.5925 43.2754 46.2296 43.148 45.8889C43.0205 45.5482 42.8249 45.2368 42.5729 44.9736C42.3208 44.7103 42.0177 44.5008 41.6818 44.3576C41.3459 44.2144 40.9842 44.1406 40.6188 44.1406C40.2533 44.1406 39.8917 44.2144 39.5558 44.3576C39.2199 44.5008 38.9167 44.7103 38.6647 44.9736C38.4126 45.2368 38.217 45.5482 38.0896 45.8889C37.9622 46.2296 37.9057 46.5925 37.9235 46.9555C37.9235 47.0826 37.8727 47.2046 37.7824 47.2944C37.692 47.3843 37.5694 47.4348 37.4416 47.4348C37.3138 47.4348 37.1913 47.3843 37.1009 47.2944C37.0105 47.2046 36.9598 47.0826 36.9598 46.9555C36.9598 46.2437 36.6755 45.561 36.1694 45.0576C35.6633 44.5543 34.977 44.2715 34.2613 44.2715C33.5456 44.2715 32.8593 44.5543 32.3532 45.0576C31.8471 45.561 31.5628 46.2437 31.5628 46.9555C31.5628 47.0826 31.5121 47.2046 31.4217 47.2944C31.3313 47.3843 31.2088 47.4348 31.081 47.4348C30.9532 47.4348 30.8306 47.3843 30.7402 47.2944C30.6499 47.2046 30.5991 47.0826 30.5991 46.9555C30.6169 46.5925 30.5604 46.2296 30.433 45.8889C30.3056 45.5482 30.11 45.2368 29.8579 44.9736C29.6059 44.7103 29.3027 44.5008 28.9668 44.3576C28.6309 44.2144 28.2693 44.1406 27.9038 44.1406C27.5384 44.1406 27.1767 44.2144 26.8408 44.3576C26.5049 44.5008 26.2018 44.7103 25.9497 44.9736C25.6977 45.2368 25.5021 45.5482 25.3747 45.8889C25.2472 46.2296 25.1908 46.5925 25.2086 46.9555C25.2086 47.0826 25.1578 47.2046 25.0674 47.2944C24.9771 47.3843 24.8545 47.4348 24.7267 47.4348C24.5989 47.4348 24.4763 47.3843 24.386 47.2944C24.2956 47.2046 24.2448 47.0826 24.2448 46.9555C24.2448 46.2437 23.9605 45.561 23.4545 45.0576C22.9484 44.5543 22.262 44.2715 21.5464 44.2715C20.8307 44.2715 20.1443 44.5543 19.6383 45.0576C19.1322 45.561 18.8479 46.2437 18.8479 46.9555C18.8479 47.0826 18.7971 47.2046 18.7068 47.2944C18.6164 47.3843 18.4938 47.4348 18.366 47.4348C18.2382 47.4348 18.1157 47.3843 18.0253 47.2944C17.9349 47.2046 17.8842 47.0826 17.8842 46.9555C17.8884 46.5982 17.8212 46.2435 17.6865 45.9122C17.5517 45.5809 17.3521 45.2795 17.0992 45.0256C16.8463 44.7717 16.5452 44.5703 16.2134 44.4332C15.8816 44.2961 15.5257 44.2259 15.1664 44.2268Z" fill="black"/>
<path d="M62.8394 88.462L62.4282 87.8229C61.8855 86.8849 61.2621 85.9954 60.565 85.1644C58.9861 83.57 57.0763 82.3377 54.9688 81.5538C53.2727 80.9147 50.3172 80.6719 47.7087 80.4226C46.3851 80.3012 45.1387 80.1862 44.085 80.0328C33.5931 78.4991 30.2329 76.1985 26.667 73.834C26.1466 73.4761 25.6198 73.1246 25.0672 72.7731C22.7286 71.2777 18.4174 68.14 15.8089 63.8711C11.8961 57.4805 11.6391 55.0073 11.4913 48.8404C11.4913 48.1247 11.4913 47.5623 11.4913 46.9808C11.4913 46.9105 11.4913 46.821 11.4913 46.7379C11.5305 45.9521 11.8252 45.2003 12.3312 44.5955C12.8372 43.9908 13.5271 43.566 14.2969 43.385C15.0666 43.2041 15.8747 43.2768 16.5993 43.5922C17.324 43.9076 17.9259 44.4487 18.3146 45.1339C18.6307 44.571 19.0922 44.1022 19.6512 43.7759C20.2103 43.4496 20.8468 43.2776 21.495 43.2776C22.1432 43.2776 22.7797 43.4496 23.3387 43.7759C23.8978 44.1022 24.3592 44.571 24.6753 45.1339C24.9919 44.5726 25.4531 44.1052 26.0115 43.78C26.5699 43.4547 27.2053 43.2833 27.8524 43.2833C28.4995 43.2833 29.1349 43.4547 29.6933 43.78C30.2517 44.1052 30.713 44.5726 31.0296 45.1339C31.3457 44.571 31.8071 44.1022 32.3662 43.7759C32.9252 43.4496 33.5617 43.2776 34.2099 43.2776C34.8581 43.2776 35.4946 43.4496 36.0536 43.7759C36.6127 44.1022 37.0741 44.571 37.3902 45.1339C37.7068 44.5726 38.1681 44.1052 38.7265 43.78C39.2849 43.4547 39.9203 43.2833 40.5674 43.2833C41.2145 43.2833 41.8499 43.4547 42.4083 43.78C42.9667 44.1052 43.4279 44.5726 43.7445 45.1339C44.0611 44.5726 44.5223 44.1052 45.0807 43.78C45.6391 43.4547 46.2745 43.2833 46.9216 43.2833C47.5687 43.2833 48.2041 43.4547 48.7625 43.78C49.3209 44.1052 49.7821 44.5726 50.0988 45.1339C50.4149 44.571 50.8763 44.1022 51.4353 43.7759C51.9944 43.4496 52.6309 43.2776 53.2791 43.2776C53.9273 43.2776 54.5638 43.4496 55.1228 43.7759C55.6819 44.1022 56.1433 44.571 56.4594 45.1339C56.776 44.5726 57.2373 44.1052 57.7956 43.78C58.354 43.4547 58.9895 43.2833 59.6366 43.2833C60.2837 43.2833 60.9191 43.4547 61.4775 43.78C62.0359 44.1052 62.4971 44.5726 62.8137 45.1339C63.1303 44.5726 63.5915 44.1052 64.1499 43.78C64.7083 43.4547 65.3437 43.2833 65.9908 43.2833C66.6379 43.2833 67.2733 43.4547 67.8317 43.78C68.3901 44.1052 68.8513 44.5726 69.1679 45.1339C69.4841 44.571 69.9455 44.1022 70.5045 43.7759C71.0636 43.4496 71.7001 43.2776 72.3483 43.2776C72.9965 43.2776 73.633 43.4496 74.192 43.7759C74.7511 44.1022 75.2125 44.571 75.5286 45.1339C75.8452 44.5726 76.3064 44.1052 76.8648 43.78C77.4232 43.4547 78.0587 43.2833 78.7058 43.2833C79.3529 43.2833 79.9883 43.4547 80.5467 43.78C81.1051 44.1052 81.5663 44.5726 81.8829 45.1339C82.1995 44.5726 82.6607 44.1052 83.2191 43.78C83.7775 43.4547 84.4129 43.2833 85.06 43.2833C85.7071 43.2833 86.3425 43.4547 86.9009 43.78C87.4593 44.1052 87.9205 44.5726 88.2371 45.1339C88.5533 44.571 89.0147 44.1022 89.5737 43.7759C90.1328 43.4496 90.7693 43.2776 91.4175 43.2776C92.0657 43.2776 92.7022 43.4496 93.2612 43.7759C93.8203 44.1022 94.2817 44.571 94.5978 45.1339C94.9144 44.5726 95.3756 44.1052 95.934 43.78C96.4924 43.4547 97.1279 43.2833 97.775 43.2833C98.4221 43.2833 99.0575 43.4547 99.6159 43.78C100.174 44.1052 100.635 44.5726 100.952 45.1339C101.268 44.571 101.73 44.1022 102.289 43.7759C102.848 43.4496 103.484 43.2776 104.132 43.2776C104.781 43.2776 105.417 43.4496 105.976 43.7759C106.535 44.1022 106.997 44.571 107.313 45.1339C107.695 44.4291 108.301 43.87 109.036 43.5439C109.771 43.2178 110.594 43.1431 111.376 43.3314C112.159 43.5198 112.856 43.9606 113.36 44.5849C113.864 45.2093 114.146 45.9821 114.162 46.7827C114.162 46.8466 114.162 46.936 114.162 47.0319C114.162 47.5623 114.162 48.1502 114.162 48.866C114.014 55.0329 113.757 57.4869 109.844 63.8966C107.236 68.1655 102.925 71.3033 100.586 72.7987C100.033 73.1502 99.5065 73.5016 98.986 73.8595C95.4202 76.256 92.06 78.5246 81.5681 80.0584C80.5208 80.2118 79.2679 80.3268 77.9444 80.4482C75.3359 80.6974 72.3804 80.9722 70.6842 81.5793C68.5778 82.3651 66.6683 83.5972 65.0881 85.19C64.3891 86.0196 63.7656 86.9092 63.2249 87.8485L62.8394 88.462ZM15.1664 44.2264C14.4747 44.2289 13.8103 44.4956 13.3105 44.9713C12.8108 45.447 12.5137 46.0954 12.4808 46.7827C12.4808 46.8594 12.4808 46.9233 12.4808 46.9872C12.4808 47.5368 12.4808 48.1055 12.4808 48.8021C12.6286 54.9051 12.8599 57.1098 16.657 63.3534C19.1627 67.4562 23.3453 70.4981 25.6133 71.9487C26.1787 72.3002 26.7056 72.6645 27.2388 73.016C30.7019 75.3549 33.9786 77.5597 44.2521 79.0614C45.2736 79.2148 46.5136 79.3299 47.8243 79.4513C50.6192 79.7133 53.5104 79.9817 55.3222 80.6335C57.5658 81.4663 59.6003 82.7747 61.2846 84.4679C61.8709 85.1474 62.3996 85.8741 62.8651 86.6407C64.5342 83.7811 67.2177 81.6454 70.3887 80.6527C72.1941 80.0136 75.0853 79.7325 77.8801 79.4704C79.1651 79.349 80.4501 79.234 81.4524 79.0806C91.7323 77.5788 95.0026 75.3741 98.4656 73.0351C98.9989 72.6837 99.5257 72.3194 100.085 71.9679C102.359 70.5173 106.51 67.4945 109.047 63.3726C112.845 57.1546 113.076 54.9243 113.224 48.8213C113.224 48.1247 113.224 47.5431 113.224 47.0255C113.228 46.9595 113.228 46.8934 113.224 46.8274C113.178 46.1385 112.866 45.494 112.353 45.0284C111.841 44.5627 111.167 44.312 110.473 44.3285C109.779 44.345 109.119 44.6274 108.629 45.1169C108.14 45.6063 107.859 46.2649 107.846 46.9552H106.882C106.882 46.6027 106.812 46.2537 106.677 45.9281C106.541 45.6024 106.342 45.3065 106.092 45.0573C105.841 44.8081 105.544 44.6104 105.216 44.4755C104.889 44.3406 104.538 44.2712 104.184 44.2712C103.829 44.2712 103.479 44.3406 103.151 44.4755C102.824 44.6104 102.526 44.8081 102.276 45.0573C102.025 45.3065 101.826 45.6024 101.691 45.9281C101.555 46.2537 101.485 46.6027 101.485 46.9552H100.477C100.494 46.5921 100.438 46.2293 100.311 45.8886C100.183 45.5479 99.9875 45.2365 99.7355 44.9732C99.4834 44.71 99.1803 44.5005 98.8444 44.3573C98.5085 44.2141 98.1468 44.1402 97.7814 44.1402C97.4159 44.1402 97.0543 44.2141 96.7184 44.3573C96.3825 44.5005 96.0793 44.71 95.8273 44.9732C95.5752 45.2365 95.3796 45.5479 95.2522 45.8886C95.1248 46.2293 95.0683 46.5921 95.0861 46.9552H94.1224C94.1224 46.2434 93.8381 45.5607 93.332 45.0573C92.826 44.5539 92.1396 44.2712 91.4239 44.2712C90.7082 44.2712 90.0219 44.5539 89.5158 45.0573C89.0097 45.5607 88.7254 46.2434 88.7254 46.9552H87.7617C87.7795 46.5921 87.723 46.2293 87.5956 45.8886C87.4682 45.5479 87.2726 45.2365 87.0205 44.9732C86.7685 44.71 86.4653 44.5005 86.1294 44.3573C85.7935 44.2141 85.4319 44.1402 85.0664 44.1402C84.701 44.1402 84.3393 44.2141 84.0034 44.3573C83.6675 44.5005 83.3644 44.71 83.1123 44.9732C82.8603 45.2365 82.6647 45.5479 82.5373 45.8886C82.4099 46.2293 82.3534 46.5921 82.3712 46.9552H81.4074C81.4253 46.5921 81.3688 46.2293 81.2414 45.8886C81.114 45.5479 80.9183 45.2365 80.6663 44.9732C80.4142 44.71 80.1111 44.5005 79.7752 44.3573C79.4393 44.2141 79.0776 44.1402 78.7122 44.1402C78.3467 44.1402 77.9851 44.2141 77.6492 44.3573C77.3133 44.5005 77.0101 44.71 76.7581 44.9732C76.5061 45.2365 76.3104 45.5479 76.183 45.8886C76.0556 46.2293 75.9991 46.5921 76.0169 46.9552H75.0532C75.0532 46.2434 74.7689 45.5607 74.2628 45.0573C73.7568 44.5539 73.0704 44.2712 72.3547 44.2712C71.639 44.2712 70.9527 44.5539 70.4466 45.0573C69.9405 45.5607 69.6562 46.2434 69.6562 46.9552H68.6925C68.7103 46.5921 68.6538 46.2293 68.5264 45.8886C68.399 45.5479 68.2034 45.2365 67.9513 44.9732C67.6993 44.71 67.3961 44.5005 67.0602 44.3573C66.7243 44.2141 66.3627 44.1402 65.9972 44.1402C65.6318 44.1402 65.2701 44.2141 64.9342 44.3573C64.5983 44.5005 64.2952 44.71 64.0432 44.9732C63.7911 45.2365 63.5955 45.5479 63.4681 45.8886C63.3407 46.2293 63.2842 46.5921 63.302 46.9552H62.3382C62.3561 46.5921 62.2996 46.2293 62.1722 45.8886C62.0448 45.5479 61.8491 45.2365 61.5971 44.9732C61.345 44.71 61.0419 44.5005 60.706 44.3573C60.3701 44.2141 60.0084 44.1402 59.643 44.1402C59.2775 44.1402 58.9159 44.2141 58.58 44.3573C58.2441 44.5005 57.9409 44.71 57.6889 44.9732C57.4369 45.2365 57.2412 45.5479 57.1138 45.8886C56.9864 46.2293 56.9299 46.5921 56.9477 46.9552H55.984C55.984 46.2434 55.6997 45.5607 55.1936 45.0573C54.6876 44.5539 54.0012 44.2712 53.2855 44.2712C52.5698 44.2712 51.8835 44.5539 51.3774 45.0573C50.8714 45.5607 50.5871 46.2434 50.5871 46.9552H49.6233C49.6411 46.5921 49.5846 46.2293 49.4572 45.8886C49.3298 45.5479 49.1342 45.2365 48.8821 44.9732C48.6301 44.71 48.327 44.5005 47.9911 44.3573C47.6551 44.2141 47.2935 44.1402 46.9281 44.1402C46.5626 44.1402 46.201 44.2141 45.865 44.3573C45.5291 44.5005 45.226 44.71 44.974 44.9732C44.7219 45.2365 44.5263 45.5479 44.3989 45.8886C44.2715 46.2293 44.215 46.5921 44.2328 46.9552H43.2948C43.3126 46.5921 43.2561 46.2293 43.1287 45.8886C43.0013 45.5479 42.8056 45.2365 42.5536 44.9732C42.3016 44.71 41.9984 44.5005 41.6625 44.3573C41.3266 44.2141 40.9649 44.1402 40.5995 44.1402C40.234 44.1402 39.8724 44.2141 39.5365 44.3573C39.2006 44.5005 38.8974 44.71 38.6454 44.9732C38.3934 45.2365 38.1977 45.5479 38.0703 45.8886C37.9429 46.2293 37.8864 46.5921 37.9042 46.9552H36.9405C36.9405 46.2434 36.6562 45.5607 36.1501 45.0573C35.6441 44.5539 34.9577 44.2712 34.242 44.2712C33.5264 44.2712 32.84 44.5539 32.3339 45.0573C31.8279 45.5607 31.5436 46.2434 31.5436 46.9552H30.5798C30.5976 46.5921 30.5411 46.2293 30.4137 45.8886C30.2863 45.5479 30.0907 45.2365 29.8387 44.9732C29.5866 44.71 29.2835 44.5005 28.9476 44.3573C28.6117 44.2141 28.25 44.1402 27.8846 44.1402C27.5191 44.1402 27.1575 44.2141 26.8216 44.3573C26.4857 44.5005 26.1825 44.71 25.9305 44.9732C25.6784 45.2365 25.4828 45.5479 25.3554 45.8886C25.228 46.2293 25.1715 46.5921 25.1893 46.9552H24.2256C24.2256 46.2434 23.9413 45.5607 23.4352 45.0573C22.9291 44.5539 22.2428 44.2712 21.5271 44.2712C20.8114 44.2712 20.125 44.5539 19.619 45.0573C19.1129 45.5607 18.8286 46.2434 18.8286 46.9552H17.8649C17.8691 46.5994 17.8026 46.2464 17.669 45.9163C17.5354 45.5863 17.3376 45.2858 17.0867 45.0321C16.8359 44.7785 16.5371 44.5767 16.2075 44.4384C15.8779 44.3001 15.5241 44.2281 15.1664 44.2264Z" fill="black"/>
<path d="M83.1164 22.8884H55.7462L42.8835 34.5512H70.2537L83.1164 22.8884Z" fill="black"/>
<path d="M78.9339 37.9319V42.2711C78.8054 42.2711 78.6769 42.2008 78.4392 42.1432C77.4826 41.9195 76.5048 41.7974 75.5222 41.779C73.5048 41.8301 71.5388 41.8173 69.9454 42.5778C68.1657 43.4278 67.3369 43.645 66.4567 45.0893C64.587 42.9293 61.3874 41.4722 57.7252 41.3508C57.5581 41.3508 57.3911 41.3508 57.2176 41.3508C56.0923 41.348 54.9707 41.4789 53.8767 41.7406C52.2843 42.0995 50.7823 42.778 49.4627 43.7345C49.1606 43.9521 48.873 44.1891 48.6018 44.4439V40.52C48.6271 39.548 48.8548 38.5918 49.2707 37.7118C49.6865 36.8318 50.2813 36.0472 51.0176 35.4076H70.7292L74.7191 31.7905C77.1927 33.2092 78.8118 35.4268 78.9339 37.9319Z" fill="black"/>
<path d="M62.8393 30.1162C63.7051 30.1162 64.407 29.418 64.407 28.5569C64.407 27.6957 63.7051 26.9976 62.8393 26.9976C61.9735 26.9976 61.2716 27.6957 61.2716 28.5569C61.2716 29.418 61.9735 30.1162 62.8393 30.1162Z" fill="#DE161A"/>
<path d="M65.7306 50.1248C65.5602 50.1248 65.3968 50.0575 65.2763 49.9377C65.1558 49.8178 65.0881 49.6553 65.0881 49.4858V33.6883L62.2868 29.0487C62.2213 28.9046 62.2119 28.7414 62.2604 28.5907C62.3089 28.44 62.4119 28.3126 62.5494 28.2331C62.6869 28.1536 62.8492 28.1276 63.0048 28.1602C63.1604 28.1928 63.2984 28.2817 63.3919 28.4097L66.2831 33.1962C66.3411 33.2975 66.3721 33.4119 66.3731 33.5285V49.505C66.3681 49.6711 66.2982 49.8288 66.1782 49.9445C66.0583 50.0602 65.8977 50.1249 65.7306 50.1248Z" fill="#DE161A"/>
<path d="M77.4561 50.4509L77.0963 50.8983C76.1584 51.9547 74.9828 52.7759 73.6654 53.2947C72.9013 53.5656 72.1227 53.7938 71.3331 53.9785C70.2433 54.234 69.1705 54.5563 68.1207 54.9435C66.4055 55.7773 64.7465 56.7208 63.1542 57.7681C61.5581 56.7232 59.8972 55.7797 58.1813 54.9435C57.121 54.555 56.0374 54.2327 54.9367 53.9785C54.1471 53.7938 53.3685 53.5656 52.6045 53.2947C51.287 52.7759 50.1114 51.9547 49.1735 50.8983L48.8137 50.4509L40.5898 59.7939L41.4765 60.2605L41.8234 60.4458C42.6047 60.9376 43.4796 61.2639 44.3934 61.4044C45.113 61.5577 46.1988 61.6792 47.2525 61.7942C48.1713 61.8965 49.1286 62.0051 49.7454 62.1265C51.7861 62.5241 53.7925 63.0797 55.7463 63.7881C57.6029 64.686 59.3803 65.7378 61.0597 66.9322C61.3938 67.1687 62.2162 67.9164 62.6402 68.3126C62.69 68.3521 62.7373 68.3948 62.7815 68.4404L63.1221 68.7535L63.4562 68.4404C63.5005 68.3948 63.5477 68.3521 63.5975 68.3126C64.0151 67.9164 64.8375 67.1687 65.1716 66.9322C66.8527 65.7405 68.6299 64.6889 70.485 63.7881C72.4412 63.0804 74.4497 62.5249 76.4923 62.1265C77.1348 62.0051 78.0665 61.8965 78.9852 61.7942C80.0389 61.6792 81.1247 61.5577 81.8443 61.4044C82.7586 61.2657 83.6338 60.9393 84.4143 60.4458L84.7612 60.2605L85.6671 59.7876L77.4561 50.4509ZM62.6338 67.0153C62.2611 66.6894 61.8628 66.3762 61.6315 66.1717C59.8908 64.938 58.049 63.852 56.1253 62.9253C54.1064 62.1922 52.0335 61.6153 49.9253 61.1999C49.2828 61.0785 48.3447 60.9698 47.3553 60.8612C46.3659 60.7525 45.2608 60.6247 44.5861 60.4841C43.7639 60.3647 42.9772 60.0705 42.2796 59.6214L42.0804 59.5128L48.7688 51.8952C49.7485 52.8779 50.9206 53.6501 52.2125 54.1639C53.0155 54.4529 53.835 54.694 54.6669 54.886C55.7275 55.1324 56.7724 55.4419 57.7958 55.8126C59.4614 56.6379 61.0768 57.5597 62.6338 58.5733V67.0153ZM83.9517 59.6214C83.2534 60.0691 82.467 60.3632 81.6451 60.4841C80.9705 60.6247 79.904 60.7461 78.876 60.8612C77.848 60.9762 76.9485 61.0785 76.306 61.1999C74.1977 61.6153 72.1249 62.1922 70.106 62.9253C68.1823 63.852 66.3404 64.938 64.5998 66.1717C64.3685 66.3443 63.9573 66.6894 63.5975 67.0153V58.5925C65.1537 57.5776 66.7692 56.6558 68.4355 55.8318C69.4586 55.4602 70.5035 55.1507 71.5644 54.9052C72.3944 54.7142 73.2119 54.473 74.0123 54.183C75.306 53.6689 76.4801 52.8968 77.4625 51.9144L84.1444 59.5128L83.9517 59.6214Z" fill="black"/>
<path d="M84.1508 59.5129L83.9517 59.6216C83.2534 60.0692 82.467 60.3634 81.6451 60.4843C80.9705 60.6249 79.904 60.7463 78.876 60.8614C77.848 60.9764 76.9485 61.0786 76.306 61.2001C74.1977 61.6155 72.1249 62.1924 70.1059 62.9255C68.1823 63.8522 66.3404 64.9382 64.5998 66.1719C64.3685 66.3445 63.9573 66.6896 63.5975 67.0155V58.5927C65.1537 57.5778 66.7692 56.6559 68.4355 55.832C69.4586 55.4604 70.5035 55.1509 71.5644 54.9053C72.3944 54.7143 73.2119 54.4732 74.0123 54.1832C75.3059 53.669 76.4801 52.897 77.4625 51.9146L84.1508 59.5129Z" fill="white"/>
<path d="M62.6337 58.5923V67.0151C62.2611 66.6892 61.8627 66.376 61.6314 66.1716C59.8908 64.9378 58.0489 63.8518 56.1253 62.9251C54.1063 62.192 52.0335 61.6151 49.9252 61.1997C49.2827 61.0783 48.3447 60.9696 47.3552 60.861C46.3658 60.7523 45.2607 60.6245 44.5861 60.4839C43.7638 60.3646 42.9771 60.0703 42.2795 59.6212L42.0804 59.5126L48.7687 51.895C49.7484 52.8777 50.9205 53.6499 52.2125 54.1637C53.0154 54.4527 53.835 54.6938 54.6668 54.8858C55.7274 55.1323 56.7723 55.4417 57.7957 55.8124C59.4618 56.6439 61.0772 57.5722 62.6337 58.5923Z" fill="white"/>
<path d="M84.9218 61.5833C84.2022 61.807 82.6795 62.2671 82.0756 62.4268C81.5808 62.5547 80.7906 62.7272 80.0581 62.887C79.3257 63.0467 78.5611 63.2129 78.0664 63.3407L77.1155 63.5835C75.2187 64.0083 73.355 64.5678 71.5387 65.2579C69.4754 66.1818 67.5664 67.4146 65.8783 68.9133C65.0846 69.7853 64.3485 70.7074 63.6745 71.674H62.5695C61.8955 70.7074 61.1594 69.7853 60.3657 68.9133C58.6776 67.4146 56.7687 66.1818 54.7053 65.2579C52.8894 64.5669 51.0256 64.0074 49.1285 63.5835L48.1776 63.3407C47.6829 63.2129 46.9376 63.0531 46.1859 62.887C45.4342 62.7208 44.6632 62.5547 44.1685 62.4268C43.5645 62.2671 42.0418 61.7878 41.3222 61.5833L41.4957 60.3052L41.8426 60.4905C42.624 60.9823 43.4988 61.3086 44.4126 61.4491C45.1322 61.6025 46.218 61.7239 47.2717 61.8389C48.1905 61.9412 49.1478 62.0498 49.7646 62.1712C51.8053 62.5688 53.8117 63.1244 55.7655 63.8328C57.6221 64.7307 59.3995 65.7825 61.0789 66.9769C61.413 67.2134 62.2354 67.9611 62.6594 68.3573C62.7092 68.3968 62.7565 68.4395 62.8008 68.4851L63.1413 68.7982L63.4754 68.4851C63.5197 68.4395 63.5669 68.3968 63.6167 68.3573C64.0343 67.9611 64.8567 67.2134 65.1908 66.9769C66.872 65.7852 68.6491 64.7336 70.5043 63.8328C72.4605 63.1252 74.4689 62.5696 76.5116 62.1712C77.154 62.0498 78.0857 61.9412 79.0044 61.8389C80.0581 61.7239 81.1439 61.6025 81.8635 61.4491C82.7778 61.3104 83.653 60.984 84.4335 60.4905L84.7804 60.3052L84.9218 61.5833Z" fill="white"/>
<path d="M85.9883 62.2606L85.5964 62.382C85.5 62.382 83.1485 63.1361 82.3261 63.3534C81.8121 63.4876 81.0411 63.6602 80.2637 63.8263C79.4863 63.9925 78.7988 64.1458 78.3363 64.2673L77.3789 64.5165C75.5405 64.9284 73.7329 65.4665 71.9692 66.1269C69.9993 67.0085 68.177 68.1852 66.5658 69.6162C65.7645 70.507 65.022 71.4483 64.3428 72.4344L64.2014 72.6325H62.0812L61.9398 72.4344C61.2606 71.4483 60.5181 70.507 59.7168 69.6162C58.1056 68.1852 56.2833 67.0085 54.3134 66.1269C52.5497 65.4665 50.7421 64.9284 48.9036 64.5165L47.9463 64.2673C47.458 64.1458 46.7256 63.9861 46.0189 63.8263C45.3121 63.6665 44.4704 63.4876 43.9565 63.3534C43.1341 63.1361 40.789 62.4076 40.6862 62.382L40.3007 62.2606L40.6219 59.8066L41.5535 59.9281L41.5086 60.2731L41.3351 61.5513C42.0547 61.7749 43.5774 62.235 44.1813 62.3948C44.676 62.5226 45.4663 62.6952 46.1988 62.8549C46.9312 63.0147 47.6958 63.1809 48.1905 63.3087L49.1414 63.5515C51.0384 63.9753 52.9022 64.5349 54.7182 65.2258C56.7815 66.1498 58.6904 67.3826 60.3786 68.8812C61.1701 69.7742 61.902 70.7178 62.5695 71.7059H63.6874C64.3613 70.7393 65.0975 69.8171 65.8912 68.9451C67.5793 67.4465 69.4882 66.2137 71.5515 65.2898C73.3678 64.5997 75.2316 64.0402 77.1284 63.6154L78.0793 63.3726C78.574 63.2448 79.3193 63.085 80.071 62.9188C80.8227 62.7527 81.5937 62.5865 82.0884 62.4587C82.6924 62.299 84.2151 61.8197 84.9347 61.6152L84.7612 60.3371L84.7162 59.992L85.6671 59.8642L85.9883 62.2606Z" fill="black"/>
<path d="M31.5371 29.72H37.1268V30.9981H35.1286V38.6668H33.5096V30.9981H31.5371V29.72Z" fill="black"/>
<path d="M59.9482 11.7178H61.8757C62.8655 11.639 63.859 11.8151 64.7605 12.229C65.034 12.4175 65.2524 12.6747 65.3935 12.9744C65.5346 13.2741 65.5933 13.6057 65.5636 13.9353C65.5827 14.4039 65.4193 14.8617 65.1074 15.2134C64.7374 15.5637 64.2648 15.7875 63.7582 15.8525C64.0167 15.8865 64.2588 15.9979 64.4521 16.172C64.6882 16.4465 64.8654 16.7662 64.9725 17.1114L66.0648 20H64.2979L63.4305 17.5076C63.3465 17.1825 63.1781 16.885 62.9422 16.6449C62.7011 16.4934 62.417 16.4239 62.1327 16.4468H61.6187V20H59.9611L59.9482 11.7178ZM61.6059 12.8617V15.3221H62.0813C62.568 15.3651 63.0563 15.2604 63.4819 15.0217C63.6246 14.8959 63.7352 14.7382 63.8044 14.5615C63.8737 14.3848 63.8997 14.1943 63.8803 14.0056C63.8972 13.8381 63.8707 13.669 63.8032 13.5146C63.7357 13.3602 63.6295 13.2256 63.4948 13.1237C63.0697 12.9115 62.5937 12.8208 62.1198 12.8617H61.6059Z" fill="black"/>
<path d="M91.9123 29.9947L91.8352 31.3176C91.5677 31.2031 91.2903 31.1133 91.0063 31.0491C90.7691 30.988 90.5253 30.9558 90.2803 30.9533C89.9367 30.9314 89.5955 31.0235 89.3102 31.2153C89.1966 31.3045 89.1064 31.4196 89.0471 31.5509C88.9878 31.6822 88.9612 31.8257 88.9696 31.9694C88.9744 32.2041 89.0606 32.4299 89.2138 32.6084C89.5515 32.9301 89.9293 33.2072 90.3381 33.4328L90.4666 33.5095C91.7516 34.2892 92.3492 35.1263 92.3492 36.0657C92.3657 36.4244 92.3023 36.7823 92.1634 37.1138C92.0246 37.4452 91.8137 37.742 91.546 37.9829C90.9638 38.4811 90.2123 38.7395 89.4451 38.7051C89.0886 38.7047 88.7332 38.6661 88.385 38.59C88.0559 38.5246 87.7349 38.4239 87.4277 38.2897L87.5433 36.954C87.8356 37.1173 88.1461 37.246 88.4685 37.3375C88.7612 37.4202 89.0637 37.4631 89.368 37.4653C89.7289 37.4833 90.0851 37.3772 90.3767 37.1649C90.4964 37.0668 90.5917 36.9425 90.6552 36.8017C90.7187 36.6609 90.7487 36.5075 90.7429 36.3533C90.7429 35.8293 90.2867 35.2861 89.3744 34.7365L89.0724 34.5576C88.5446 34.2648 88.0779 33.8744 87.6975 33.4073C87.4383 33.0322 87.3076 32.584 87.3249 32.1292C87.3113 31.7988 87.373 31.4697 87.5054 31.1665C87.6378 30.8633 87.8375 30.5938 88.0894 30.3781C88.682 29.9249 89.4183 29.6982 90.1647 29.7391C90.4596 29.7374 90.7541 29.7609 91.0449 29.8094C91.3382 29.85 91.6281 29.9119 91.9123 29.9947Z" fill="black"/>
</g>
<defs>
<clipPath id="clip0">
<rect width="126" height="88.9412" fill="white"/>
</clipPath>
</defs>
</svg>
