<svg xmlns="http://www.w3.org/2000/svg" viewBox="0 0 100 100">
  <defs>
    <style>
      .a, .i {
        fill: #e8f4fa;
      }

      .a {
        stroke: #daedf7;
        stroke-miterlimit: 10;
      }

      .b {
        fill: #525252;
        opacity: 0.15;
      }

      .c, .d {
        fill: #ffe500;
      }

      .c, .g, .h, .i, .j, .m, .n, .q {
        stroke: #45413c;
        stroke-linecap: round;
        stroke-linejoin: round;
      }

      .e {
        fill: #fff48c;
      }

      .f, .j {
        fill: #ebcb00;
      }

      .g {
        fill: none;
      }

      .h {
        fill: #947746;
      }

      .k {
        fill: #a6fbff;
      }

      .l {
        fill: #4aeff7;
      }

      .m {
        fill: #ffaa54;
      }

      .n {
        fill: #fff5e3;
      }

      .o {
        fill: #4acfff;
      }

      .p {
        fill: #00b8f0;
      }

      .q {
        fill: #fff;
      }

      .r {
        fill: #ff866e;
      }

      .s {
        fill: #ff6242;
      }
    </style>
  </defs>
  <title>acheivement-2--education-ACHIEVEMENT-GRADUATION-rewards-AWARD-WINNER-ACADEMIC-DECATHLON-TROPHY-BOOKS</title>
  <g>
    <circle class="a" cx="50" cy="52.007" r="40"/>
    <g>
      <g>
        <ellipse class="b" cx="51.046" cy="84.968" rx="32.294" ry="1.91"/>
        <g>
          <path class="c" d="M57.933,42.022a3.712,3.712,0,0,0-3.712-3.712H45.559a3.712,3.712,0,0,0-3.712,3.712Z"/>
          <path class="d" d="M36.278,8.931c3.712,0,4.331,17.005,4.331,17.005a9.281,9.281,0,0,0,18.562,0S59.789,8.931,63.5,8.931Z"/>
          <path class="e" d="M40.475,24.214,51.127,8.931H36.278C39.122,8.931,40.149,20.815,40.475,24.214Z"/>
          <path class="f" d="M49.89,32.123a9.9,9.9,0,0,1-9.3-6.54c.015.223.022.353.022.353a9.281,9.281,0,0,0,18.562,0s.006-.13.021-.353A9.9,9.9,0,0,1,49.89,32.123Z"/>
          <path class="g" d="M36.278,8.931c3.712,0,4.331,17.005,4.331,17.005a9.281,9.281,0,0,0,18.562,0S59.789,8.931,63.5,8.931Z"/>
          <path class="h" d="M60.185,53.159H39.6a1.238,1.238,0,0,1-1.221-1.441l1.444-8.662a1.238,1.238,0,0,1,1.221-1.034h17.7a1.238,1.238,0,0,1,1.221,1.034l1.443,8.662A1.237,1.237,0,0,1,60.185,53.159Z"/>
          <rect class="i" x="43.084" y="45.734" width="13.612" height="3.712" rx="1.237"/>
          <path class="j" d="M52.983,38.31a1.856,1.856,0,1,0,0-3.712H46.8a1.856,1.856,0,0,0,0,3.712Z"/>
          <path class="c" d="M36.278,30.267a3.717,3.717,0,0,1-3.712-3.713,1.238,1.238,0,0,1,2.475,0,1.238,1.238,0,0,0,1.237,1.238,1.858,1.858,0,0,0,1.856-1.856c0-1.72-1.427-2.392-4.681-3.516-3.508-1.209-8.312-2.867-8.312-8.859a5.569,5.569,0,0,1,11.137,0,3.717,3.717,0,0,1-3.712,3.713,1.238,1.238,0,1,1,0-2.475A1.238,1.238,0,0,0,33.8,13.561a3.094,3.094,0,0,0-6.187,0c0,4.227,3.228,5.342,6.644,6.52,2.976,1.027,6.349,2.192,6.349,5.855A4.337,4.337,0,0,1,36.278,30.267Z"/>
          <path class="c" d="M63.5,30.267a3.717,3.717,0,0,0,3.712-3.713,1.238,1.238,0,0,0-2.475,0A1.239,1.239,0,0,1,63.5,27.792a1.859,1.859,0,0,1-1.857-1.856c0-1.72,1.428-2.392,4.682-3.516,3.508-1.209,8.311-2.867,8.311-8.859a5.568,5.568,0,0,0-11.136,0,3.717,3.717,0,0,0,3.712,3.713,1.238,1.238,0,0,0,0-2.475,1.239,1.239,0,0,1-1.238-1.238,3.094,3.094,0,0,1,6.188,0c0,4.227-3.228,5.342-6.644,6.52-2.977,1.027-6.349,2.192-6.349,5.855A4.337,4.337,0,0,0,63.5,30.267Z"/>
        </g>
        <g>
          <g>
            <path class="k" d="M48.591,74.457H22.685a5.284,5.284,0,1,1,0-10.567H48.591Z"/>
            <path class="l" d="M48.586,71.314H22.678A5.273,5.273,0,0,1,17.64,67.6a5.286,5.286,0,0,0,5.045,6.858H48.591V70.906"/>
            <path class="g" d="M48.591,74.457H22.685a5.284,5.284,0,1,1,0-10.567H48.591Z"/>
            <path class="m" d="M30.135,74.458H26.662a5.285,5.285,0,0,1,0-10.57h3.473a5.285,5.285,0,0,0,0,10.57Z"/>
            <g>
              <path class="l" d="M42.3,66.062a2.936,2.936,0,1,0,0,5.871H68.205a1.175,1.175,0,0,1,0,2.349H42.3a5.284,5.284,0,0,1,0-10.568H68.205a1.174,1.174,0,1,1,0,2.348Z"/>
              <path class="k" d="M37.015,69A5.284,5.284,0,0,1,42.3,63.714H68.205a1.174,1.174,0,1,1,0,2.348H42.3A2.936,2.936,0,0,0,39.363,69Z"/>
              <path class="g" d="M42.3,66.062a2.936,2.936,0,1,0,0,5.871H68.205a1.175,1.175,0,0,1,0,2.349H42.3a5.284,5.284,0,0,1,0-10.568H68.205a1.174,1.174,0,1,1,0,2.348Z"/>
              <path class="n" d="M68.205,71.933V66.062H42.3a2.936,2.936,0,1,0,0,5.871Z"/>
            </g>
          </g>
          <g>
            <path class="o" d="M56.694,84.876H30.788a5.284,5.284,0,0,1,0-10.568H56.694Z"/>
            <path class="p" d="M25.748,78.023a5.273,5.273,0,0,0,5.035,3.7H56.694v3.149H30.788a5.289,5.289,0,0,1-5.046-6.855"/>
            <path class="g" d="M56.694,84.876H30.788a5.284,5.284,0,0,1,0-10.568H56.694Z"/>
            <path class="q" d="M38.238,84.876H34.766a5.285,5.285,0,0,1,0-10.569h3.472a5.285,5.285,0,0,0,0,10.569Z"/>
            <g>
              <path class="p" d="M49.244,76.63a2.936,2.936,0,0,0,0,5.871H75.15a1.174,1.174,0,1,1,0,2.348H49.244a5.284,5.284,0,0,1,0-10.567H75.15a1.174,1.174,0,1,1,0,2.348Z"/>
              <path class="o" d="M43.961,79.565a5.283,5.283,0,0,1,5.283-5.283H75.15a1.174,1.174,0,1,1,0,2.348H49.244a2.935,2.935,0,0,0-2.935,2.935Z"/>
              <path class="g" d="M49.244,76.63a2.936,2.936,0,0,0,0,5.871H75.15a1.174,1.174,0,1,1,0,2.348H49.244a5.284,5.284,0,0,1,0-10.567H75.15a1.174,1.174,0,1,1,0,2.348Z"/>
              <path class="n" d="M75.15,82.5V76.63H49.244a2.936,2.936,0,0,0,0,5.871Z"/>
            </g>
          </g>
          <g>
            <path class="r" d="M52,63.714H26.092a5.284,5.284,0,0,1,0-10.568H52Z"/>
            <path class="s" d="M51.994,60.565H26.087a5.273,5.273,0,0,1-5.039-3.714,5.288,5.288,0,0,0,5.044,6.863H52V60.565"/>
            <path class="g" d="M52,63.714H26.092a5.284,5.284,0,0,1,0-10.568H52Z"/>
            <g>
              <path class="s" d="M44.87,55.5a2.936,2.936,0,0,0,0,5.871H70.776a1.174,1.174,0,1,1,0,2.348H44.87a5.284,5.284,0,0,1,0-10.568H70.776a1.175,1.175,0,1,1,0,2.349Z"/>
              <path class="r" d="M39.587,58.43a5.283,5.283,0,0,1,5.283-5.284H70.776a1.175,1.175,0,1,1,0,2.349H44.87a2.935,2.935,0,0,0-2.935,2.935Z"/>
              <path class="g" d="M44.87,55.5a2.936,2.936,0,0,0,0,5.871H70.776a1.174,1.174,0,1,1,0,2.348H44.87a5.284,5.284,0,0,1,0-10.568H70.776a1.175,1.175,0,1,1,0,2.349Z"/>
              <path class="n" d="M70.776,61.366V55.5H44.87a2.936,2.936,0,0,0,0,5.871Z"/>
            </g>
            <path class="c" d="M33.542,63.714H30.069a5.285,5.285,0,0,1,0-10.569h3.473a5.285,5.285,0,0,0,0,10.569Z"/>
          </g>
        </g>
      </g>
      <path class="c" d="M63.369,12.533a1.115,1.115,0,0,1-1.116,1.115H37.578a1.116,1.116,0,0,1,0-2.231H62.253A1.115,1.115,0,0,1,63.369,12.533Z"/>
    </g>
  </g>
</svg>
